<svg xmlns="http://www.w3.org/2000/svg" viewBox="0 0 426.18 368.29"><defs><style>.cls-1{fill:#191919;}.cls-2{fill:#f9aad7;}.cls-3{fill:#787878;}.cls-4{fill:#fe974d;}.cls-5{fill:#070707;}</style></defs><g id="Layer_2" data-name="Layer 2"><g id="Layer_1-2" data-name="Layer 1"><polygon class="cls-1" points="58.21 246.96 58.89 246.74 59.64 246.89 60.39 246.91 61.14 246.96 61.58 247.13 62.31 247.03 63.03 247.12 63.76 247.09 64.47 247.18 65.19 247.36 65.91 247.39 66.64 247.25 67.35 247.56 68.08 247.39 68.8 247.44 69.53 247.43 70.25 247.59 70.98 247.56 71.7 247.65 72.44 247.61 73.16 247.66 73.89 247.72 74.61 247.79 75.35 247.68 76.07 247.85 76.8 247.88 77.56 247.83 78.32 247.98 79.08 248.07 79.83 248.2 80.59 248.22 81.36 248.13 82.12 248.28 82.92 248.17 83.1 248.75 82.87 249.47 82.61 250.15 82.38 250.87 82.43 251.62 82.17 252.25 82.22 252.91 82 253.53 81.88 254.17 81.62 254.81 81.92 255.85 81.72 256.17 81.69 256.93 81.47 257.62 81.54 258.34 81.46 259.1 81.22 259.83 81.37 260.59 81.09 261.3 80.93 262.03 80.79 262.76 80.88 263.53 80.69 264.25 80.36 265 80.41 265.75 80.28 266.5 80.23 267.24 80.24 268 80.33 268.75 80.02 269.48 80.18 270.24 80.18 270.99 80.09 271.74 80.08 272.48 79.94 273.22 79.95 273.96 79.96 274.7 79.83 275.46 79.69 276.21 79.63 276.98 79.4 277.71 79.32 278.47 79.13 279.21 79.17 279.99 78.89 280.72 78.77 281.44 78.74 282.19 78.67 282.92 78.61 283.66 78.55 284.39 78.59 285.13 78.44 285.87 78.43 286.59 78.45 287.33 78.17 288.03 78.01 288.76 77.97 289.51 77.83 290.25 77.85 291 77.75 291.74 77.7 292.36 77.57 293.08 77.61 293.81 77.55 294.52 77.51 295.25 77.41 295.98 77.18 296.56 77.24 297.19 77.04 297.97 76.98 298.75 77.15 299.55 76.87 300.3 76.79 301.09 76.57 301.7 76.74 302.33 76.53 303.03 76.7 303.74 76.71 304.45 76.5 305.14 76.31 305.82 76.36 306.55 76.23 307.39 76.2 308.25 75.99 309.01 75.7 309.72 75.81 310.5 75.66 311.24 75.64 311.99 75.44 312.72 75.52 313.4 75.31 314.05 75.23 314.72 75.22 315.39 75.47 316.12 75.29 316.84 75.17 317.55 75.29 317.85 75.17 318.59 75.4 319.3 75.21 320.01 75.15 320.72 75.16 321.44 75.14 322.15 75.19 322.86 75.13 323.63 75.22 324.43 75.05 325.19 74.88 326.03 74.61 326.87 74.65 327.59 74.68 328.31 74.74 329.03 74.52 329.73 74.49 330.44 74.7 331.17 74.41 331.87 74.42 332.59 74.22 333.28 74.39 334.04 74.29 334.77 74.1 335.5 74.16 336.24 74.1 336.98 73.96 337.7 73.91 338.44 73.93 339.12 73.68 339.78 73.65 340.47 73.87 341.14 73.73 341.83 73.81 342.5 73.95 343.28 73.81 344.07 73.38 344.67 72.75 344.76 72.08 344.9 71.44 345.21 70.72 345.1 70.34 345.34 69.66 345.4 69.02 345.17 68.34 345.15 67.71 344.82 67.04 344.72 66.29 344.78 65.57 344.64 64.85 344.49 64.12 344.39 63.4 344.26 62.69 344.07 61.94 344.07 61.25 343.81 60.54 343.64 59.88 343.27 59.22 343.19 58.59 342.96 57.92 342.91 57.25 342.92 56.56 342.85 55.87 342.81 55.19 342.74 54.53 342.68 53.85 342.64 53.19 342.44 52.5 342.52 51.86 342.35 51.14 342.38 50.42 342.25 49.68 342.25 48.98 342.07 48.18 342.02 47.38 341.91 46.74 341.91 46.17 341.55 45.5 341.57 44.85 341.3 44.59 340.66 44.15 340.09 44.23 339.4 44.27 338.72 44.32 338.04 44.44 337.38 44.66 336.73 44.91 336.1 45.03 335.38 45 334.65 45.25 333.96 45.13 333.22 45.18 332.5 45.23 331.75 45.43 331.02 45.6 330.28 45.44 329.5 45.63 328.78 45.64 328.06 45.69 327.32 45.85 326.6 46.1 325.9 46.12 325.16 46.04 324.43 46.23 323.68 46.4 322.95 46.43 322.2 46.54 321.45 46.77 320.73 46.76 320.06 47.01 319.44 47.09 318.79 47.23 318.15 47.33 317.5 47.5 316.83 47.49 316.14 47.71 315.49 47.84 314.81 47.87 314.13 47.75 313.44 47.76 312.88 47.9 312.37 48.02 311.69 48.13 311.01 48.05 310.3 48.33 309.64 48.37 308.95 48.48 308.27 48.61 307.59 48.52 306.85 48.59 306.11 48.81 305.4 48.91 304.67 49.13 303.96 49.33 303.25 49.32 302.5 49.5 301.79 49.52 301.04 49.95 300.37 49.92 299.64 49.99 298.93 50.14 298.23 50.15 297.5 50.33 296.81 50.44 296.1 50.68 295.41 50.8 294.66 50.96 293.92 50.95 293.15 50.91 292.37 51.29 291.66 51.26 290.89 51.29 290.12 51.6 289.42 51.6 288.66 51.63 287.91 51.93 287.2 51.83 286.44 52.07 285.72 52.12 284.97 52.12 284.23 52.23 283.46 52.23 282.67 52.45 281.91 52.73 281.3 52.78 280.64 52.84 279.99 52.85 279.33 52.96 278.68 53.09 278 53.31 277.33 53.48 276.65 53.55 275.96 53.7 275.28 53.53 274.55 53.71 273.88 53.98 273.13 54.08 272.33 53.88 271.59 54.07 270.86 54.04 270.12 54.24 269.4 54.28 268.66 54.26 267.91 54.47 267.19 54.52 266.49 54.74 265.8 54.83 265.1 54.7 264.38 54.93 263.7 54.85 262.98 55.16 262.23 55.21 261.45 55.3 260.67 55.37 259.88 55.7 259.19 55.91 258.46 55.85 257.69 56.11 256.96 56.2 256.22 56.2 255.51 56.23 254.81 56.5 254.15 56.55 253.45 56.67 252.77 56.96 252.12 57.15 251.45 57.26 250.76 57.41 250.08 57.52 249.43 57.76 248.81 58 248.19 58.14 247.55 58.21 246.96"/><polygon class="cls-1" points="115.99 229.18 115.28 229.17 114.61 229.12 113.93 229.13 113.27 228.99 112.6 228.96 111.94 228.82 111.26 229 110.42 228.41 110.18 227.91 110 227.33 110.23 226.68 110.42 226.05 110.52 225.39 110.78 224.76 110.92 224.1 111.08 223.56 110.97 223 110.8 222.31 110.89 221.61 111.14 220.93 111.15 220.24 111.09 219.53 111.14 218.83 111.27 218.15 111.59 217.35 111.42 216.51 111.61 215.68 111.66 215.05 111.47 214.45 111.56 213.84 111.51 212.98 111.38 212.13 111.49 211.45 111.51 210.78 111.57 210.11 111.57 209.44 111.62 208.78 111.57 208.11 111.53 207.45 111.75 206.79 112.22 206.17 113 205.95 113.76 205.85 114.51 205.75 115.27 205.94 116.03 205.93 116.8 205.87 117.56 206.01 118.14 206.22 118.75 206.09 119.51 206.05 120.26 205.89 121.01 205.91 121.77 205.89 122.52 206.02 123.23 205.87 123.94 205.97 124.66 206.13 125.37 205.88 126.09 205.86 126.8 205.93 127.52 205.92 128.24 205.99 128.95 205.83 129.58 205.82 130.19 206.02 130.82 205.98 131.6 206.11 132.37 206.33 133.16 206.28 133.94 206.31 134.73 206.19 135.39 206.4 136.05 206.2 136.71 206.2 137.37 206.29 138.01 206.46 138.73 206.34 139.44 206.4 140.15 206.38 140.82 206.7 141.53 206.76 142.23 206.79 142.92 207 143.62 207.08 144.38 206.96 145.13 206.94 145.85 207.25 146.59 207.3 147.3 207.39 148.02 207.35 148.73 207.49 149.44 207.5 150.15 207.68 150.87 207.75 151.59 207.65 152.28 207.79 152.98 207.74 153.67 207.84 154.37 207.84 155.07 207.73 155.77 207.86 156.47 207.86 157.16 207.83 157.86 207.9 158.56 207.68 159.26 207.91 159.96 207.94 160.65 207.8 161.35 207.79 162.05 207.75 162.75 207.73 163.46 207.63 164.18 207.56 164.91 207.68 165.59 207.57 166.27 207.39 166.93 207.64 167.64 207.74 168.32 207.97 169.07 207.88 169.72 208.26 170.44 208.3 171.09 208.64 171.82 208.7 172.47 208.92 172.96 209.42 173.54 209.74 174.18 209.99 174.71 210.46 174.97 211.13 175.51 211.61 175.59 212.33 175.81 212.97 176.01 213.66 176.21 214.37 176.28 215.1 176.17 215.83 176.16 216.55 176.24 217.31 176.11 218.04 175.81 218.74 175.62 219.46 175.44 220.18 175.37 220.92 175.21 221.65 174.93 222.34 174.67 223.03 174.64 223.84 174.48 224.61 174.34 225.37 174.36 226.15 173.97 226.7 173.98 227.41 173.85 228.05 173.68 228.68 173.65 229.35 173.33 229.96 173.11 230.61 173.09 231.3 173.02 231.98 172.78 232.65 172.71 233.33 172.59 234 172.6 234.68 172.47 235.38 172.27 236.07 172.15 236.78 171.84 237.45 171.73 238.16 171.93 238.9 171.75 239.61 171.76 240.24 171.66 240.77 171.43 241.29 171.47 242.05 171.44 242.79 171.28 243.53 171.16 244.26 171.16 245.01 171.07 245.76 170.88 246.48 170.74 247.22 170.39 247.97 170.48 248.66 170.46 249.38 170.34 250.08 170.03 250.72 169.7 251.34 169.64 252.04 169.5 252.71 169.26 253.36 169.16 254.04 168.99 254.71 168.86 255.39 168.86 256.08 168.77 256.86 168.74 257.65 168.56 258.41 168.15 259.11 168.05 259.89 167.86 260.65 167.79 261.43 167.68 262.19 167.6 262.96 167.41 263.73 167.43 264.41 167.41 265.08 167.35 265.77 167.17 266.53 167.05 267.3 166.99 268.08 166.76 268.83 166.7 269.5 166.6 270.17 166.15 270.34 165.51 270.54 164.86 270.38 164.49 270.06 163.78 270.15 163.07 270.05 162.37 270 161.64 270.02 160.87 269.96 160.1 269.76 159.37 269.48 158.71 269.26 158.04 269.1 157.34 269.1 156.66 268.96 156.02 268.68 155.42 268.46 154.71 268.43 154.01 268.39 153.29 268.43 152.57 268.49 151.88 268.22 151.17 268.32 150.45 268.17 150.04 268.14 149.34 267.9 148.62 267.82 147.91 268.02 147.2 267.92 146.56 267.96 146.57 268.05 145.86 267.81 145.12 267.65 144.37 267.8 143.69 267.58 143.01 267.64 142.34 267.52 141.66 267.36 141.16 266.88 140.9 266.36 141.18 265.83 141.49 265.24 141.7 264.59 141.72 263.91 142.04 263.31 142.02 262.51 142.29 261.79 142.57 261.08 142.77 260.34 142.95 259.6 143.23 258.89 143.29 258.11 143.76 257.45 143.92 256.76 144.21 256.1 144.28 255.38 144.61 254.74 144.68 254.01 145.05 253.38 145.03 252.63 145.35 251.99 145.48 251.28 145.57 250.58 145.9 249.94 146.01 249.22 146.39 248.61 146.54 247.95 146.77 247.27 147.15 246.51 147.4 245.72 147.57 244.88 148.07 244.41 148.01 243.75 148.16 243.01 148.28 242.27 148.61 241.58 148.77 240.85 149.07 240.16 149.26 239.43 149.53 238.73 149.83 238.04 150.12 237.35 150.25 236.52 150.6 235.76 150.71 234.93 150.72 234.29 150.99 233.71 151.19 233.11 151.42 232.51 151.52 231.9 151.4 231.72 151.64 231.1 151.71 230.4 151.81 229.77 151.76 229.05 151.95 228.35 152.32 227.68 151.53 227.72 150.79 227.5 150.04 227.68 149.29 227.73 148.69 227.89 148.07 227.86 147.44 228 146.81 227.92 146.24 228.25 145.58 228.27 144.94 228.35 144.25 228.24 143.56 228.03 142.86 228.26 142.15 228.11 141.45 228.1 140.75 228.13 140.06 228.4 139.36 228.39 138.64 228.3 137.96 228.45 137.09 228.46 136.25 228.49 135.51 228.56 134.78 228.72 134.04 228.49 133.32 228.71 132.59 228.77 131.86 228.69 131.12 228.7 130.4 228.62 129.66 228.67 128.93 228.67 128.2 228.57 127.47 228.52 126.68 228.58 125.97 228.47 125.27 228.55 124.56 228.49 123.85 228.63 123.14 228.49 122.43 228.58 121.75 228.77 121.05 228.84 120.29 228.86 119.54 228.87 118.78 228.96 118.02 228.84 117.26 228.89 116.5 229.03 115.99 229.18"/><polygon class="cls-1" points="50.52 199.27 50.94 199.66 51.35 200.14 51.96 200.74 52.71 201.12 52.45 201.89 51.98 202.61 51.22 202.97 50.53 203.44 49.92 203.87 49.22 204.16 48.67 204.68 47.93 205 47.38 205.57 46.89 206.06 46.33 206.44 45.79 206.85 45.23 207.22 44.57 207.47 44.15 208.11 44.08 208.04 43.92 208.07 43.85 208.02 43.27 208.48 42.62 208.78 42 209.13 41.39 209.52 40.95 210.13 40.36 210.53 39.74 210.89 39.03 211.46 38.16 211.75 37.72 212.27 37.2 212.68 36.59 212.96 35.97 213.19 35.38 212.76 34.68 212.43 34.33 211.75 33.98 211.08 33.43 210.56 32.97 209.97 32.53 209.37 31.99 208.8 31.36 208.31 30.81 207.75 30.27 207.18 29.99 206.42 29.43 206.06 29.02 205.53 28.44 205.28 28.12 204.75 27.82 204.18 27.19 203.94 26.97 203.17 26.32 202.74 25.77 202.24 25.38 201.59 25.05 200.93 24.5 200.32 23.9 199.95 23.38 199.49 22.9 199 22.52 198.39 21.99 197.94 21.45 197.5 20.91 197.07 20.49 196.51 20.04 195.98 19.52 195.52 19.05 195.01 18.6 194.48 17.96 194.13 17.43 193.66 16.85 193.26 16.38 192.72 15.8 192.32 15.31 191.79 14.8 191.36 14.13 191.09 13.73 190.53 13.1 190.25 12.65 189.77 12.24 189.23 11.6 188.97 11.26 188.36 10.66 187.93 10.11 187.46 9.66 186.88 9.11 186.41 8.63 185.86 8.02 185.44 7.66 184.77 7.03 184.38 6.64 183.67 6.08 183.13 5.46 182.63 4.9 182.08 4.56 181.35 4.09 180.77 3.53 180.25 3.17 179.59 2.63 179.04 2.28 178.78 1.8 178.19 1.45 177.46 1.01 176.87 0.53 176.37 0.45 175.69 0.13 175.1 0.19 174.42 0 173.78 0.01 173.02 0.21 172.28 0.18 171.52 0.42 170.8 0.52 170.05 0.8 169.35 1.08 168.65 1.34 167.94 1.75 167.31 2.23 166.72 2.54 166.09 3.03 165.6 3.48 165.06 4.17 164.82 4.74 164.46 5.25 163.97 5.85 163.62 6.45 163.28 7.19 163.14 7.8 162.72 8.54 162.61 9.25 162.41 9.93 162.15 10.64 161.99 11.29 161.55 12.03 161.38 12.7 161.03 13.42 160.81 14.15 160.63 14.92 160.56 15.59 160.18 16.3 159.93 17.02 159.7 17.8 159.67 18.51 159.42 19.21 159.33 19.87 159.15 20.64 158.9 21.42 158.85 22.15 158.56 22.92 158.43 23.67 158.19 24.25 157.85 24.92 157.79 25.54 157.57 26.2 157.49 26.84 157.3 27.52 157.4 28.16 157.11 28.83 156.88 29.48 156.5 30.24 156.62 30.88 156.2 31.59 156.12 32.29 156.06 32.98 155.89 33.65 155.67 34.35 155.57 35.07 155.62 35.75 155.44 36.44 155.31 37.14 155.21 37.84 155.16 38.48 154.89 39.17 154.87 39.85 154.91 40.52 154.76 41.19 154.56 41.87 154.56 42.6 154.62 43.32 154.58 44.04 154.43 44.76 154.3 45.49 154.45 46.21 154.24 46.94 154.31 47.66 154.26 48.37 154.03 49.1 154 49.82 153.97 50.55 153.97 51.29 153.98 51.98 153.73 52.71 153.7 53.41 153.49 54.13 153.41 54.84 153.25 55.57 153.23 56.35 153.15 57.1 152.82 57.87 152.99 58.59 152.75 59.3 152.53 60.02 152.33 60.77 152.25 61.38 152.06 62.03 151.96 62.7 151.59 62.87 152.46 63.22 153.16 63.45 153.91 63.67 154.66 63.84 155.29 64.17 155.88 64.18 156.55 64.51 157.13 64.55 157.81 64.99 158.45 65.14 159.18 65.3 159.91 65.39 160.65 65.56 161.38 65.69 162.12 65.82 162.87 66.16 163.54 66.44 164.25 66.5 164.97 66.6 165.7 66.84 166.38 67.16 167.03 67.45 167.69 67.75 168.35 67.87 169.06 67.25 169.71 66.59 169.83 65.96 170.07 65.27 170.12 64.66 170.43 64 170.57 63.32 170.58 62.62 170.86 61.98 171.25 61.24 171.24 60.73 171.52 60.18 171.65 59.47 171.62 58.77 171.77 58.06 171.89 57.34 171.99 56.65 172.21 55.91 172.64 55.08 172.73 54.25 172.83 53.69 173.11 53.15 173.47 52.82 173.45 52.19 173.38 51.59 173.64 50.93 173.53 50.24 173.84 49.5 173.93 48.76 173.99 48.02 174.13 47.11 173.93 46.33 173.95 45.55 174.07 44.76 174.07 44 174.26 43.08 174.35 42.3 174.56 41.51 174.51 40.75 174.75 39.97 174.87 39.16 174.86 38.73 174.88 37.9 175.08 37.05 174.99 36.21 174.97 35.58 174.91 34.96 175.06 34.38 175.3 33.58 175.36 32.79 175.19 32.08 175.27 31.36 175.46 30.65 175.54 29.93 175.56 29.21 175.39 28.5 175.66 27.77 175.52 27.01 175.53 26.3 175.82 25.56 175.91 24.83 176.02 24.11 176.02 24.57 176.6 25.16 176.99 25.75 177.37 26.38 177.68 26.97 178.07 27.59 178.42 28.19 178.8 28.62 179.4 29.18 179.82 29.76 180.22 30.41 180.52 31.06 180.92 31.4 181.61 31.85 182.19 32.48 182.79 33.1 183.38 33.61 184.08 34.24 184.68 34.66 185.35 35.23 185.9 35.77 186.45 36.33 186.87 36.74 187.43 37.34 187.81 37.76 188.36 38.17 188.94 38.86 189.23 39.38 189.71 39.86 190.22 40.46 190.59 40.87 191.16 41.47 191.53 42.03 191.93 42.43 192.51 43 192.91 43.49 193.45 43.92 194.06 44.54 194.48 45.11 194.94 45.77 195.28 46.26 195.87 47.05 196.18 47.71 196.7 48.27 197.32 48.71 197.93 49.37 198.33 49.92 198.82 50.52 199.27"/><polygon class="cls-1" points="207.11 160.57 207.14 161.34 206.96 162.1 206.91 162.52 206.64 163.15 206.66 163.82 206.53 164.48 206.4 165.13 206.38 165.87 206.22 166.59 206.25 167.35 205.86 168.03 205.77 168.76 205.72 169.51 205.55 170.23 205.26 170.85 205.04 171.51 204.99 172.15 204.87 173.17 204.43 173.76 204.18 174.45 204.1 175.18 203.69 175.8 203.4 176.39 202.91 176.92 202.13 176.93 201.38 176.97 200.62 177.07 199.86 177 199.11 176.93 198.35 176.85 197.59 176.95 196.84 176.8 196.07 176.76 195.31 176.79 194.56 176.91 193.79 176.88 193.09 177.16 192.36 177.11 191.63 177.08 190.91 177.12 190.19 177.38 189.47 177.22 188.74 177.19 188.02 177.4 187.42 177.47 186.77 177.53 186.07 177.34 185.41 177.03 184.71 176.88 184.02 176.67 183.3 176.63 182.57 176.8 181.85 176.76 181.14 176.71 180.43 176.78 179.71 176.72 178.99 176.73 178.28 176.54 177.54 176.64 176.89 176.23 176.4 176.39 175.66 176.39 174.93 176.38 174.2 176.66 173.48 176.68 172.6 176.72 171.73 176.64 170.92 176.43 170.09 176.32 169.26 176.3 168.5 176.31 167.75 176.16 166.99 176.09 166.25 175.91 165.48 175.99 164.72 175.99 163.96 175.97 163.08 175.54 162.36 175.41 161.62 175.51 160.93 175.27 160.21 175.24 159.54 174.88 158.77 174.98 158.02 175.06 157.27 175.16 156.52 175.03 155.78 175.27 155.03 175.42 154.32 175.12 153.59 175.11 152.9 174.92 152.18 174.85 151.46 174.87 150.73 174.96 150.03 174.89 149.33 174.84 148.65 174.75 147.91 174.86 147.27 174.48 146.57 174.4 145.84 174.47 145.16 174.3 144.48 174.04 143.75 174.19 143.07 173.97 142.36 173.94 141.68 173.72 140.97 173.73 140.24 173.82 139.53 173.67 138.83 173.47 138.13 173.29 137.39 173.38 136.72 173.06 136.02 173.06 135.5 173.2 134.94 173.03 134.21 173.16 133.48 173.19 132.75 173.11 132.02 173.18 131.28 173.18 130.56 172.94 129.89 173.09 129.22 173.03 128.56 173.15 127.9 173.06 127.23 172.92 126.58 173.06 125.92 173.13 125.25 172.99 124.52 173.05 123.79 172.99 123.06 172.99 122.36 172.78 121.63 172.79 120.92 172.66 120.2 172.62 119.48 172.56 118.87 172.73 118.77 171.99 118.81 171.24 118.84 170.48 119.15 169.79 119.38 169.07 119.73 168.41 120.08 167.74 120.64 167.23 120.97 166.55 121.45 165.99 122.03 165.53 122.5 164.95 123.09 164.51 123.78 164.22 124.27 163.62 124.91 163.25 125.67 163.12 126.23 162.71 126.82 162.35 127.41 161.98 127.99 161.62 128.65 161.38 129.24 161.02 129.75 160.56 130.31 160.16 130.93 159.82 131.48 159.39 131.82 158.77 132.35 158.3 132.63 157.66 132.91 157.02 133.41 156.5 133.73 155.88 133.92 155.11 134.72 155.39 135.46 155.13 136.19 155.14 136.92 155.34 137.66 155.13 138.39 155.14 139.12 155.29 139.85 155.25 140.59 155.45 141.29 155.29 142 155.24 142.7 155.4 143.4 155.53 144.13 155.55 144.86 155.63 145.6 155.62 146.32 155.5 147.05 155.55 147.76 155.39 148.44 155.37 149.12 155.37 149.79 155.19 150.47 155.14 151.15 155.31 151.82 155.3 152.58 155.19 153.34 155.1 154.09 155.08 154.86 155.21 155.61 155.11 156.36 154.93 157.11 154.95 157.86 155.05 158.6 155.01 159.34 154.98 160.09 154.95 160.84 154.86 161.59 154.77 162.33 154.96 163.11 155.09 163.9 154.96 164.68 155.08 165.47 154.93 166.23 155.21 167.09 155.11 167.96 154.99 168.61 155.2 169.29 155.23 169.92 155.52 170.81 155.51 171.68 155.43 172.46 155.44 173.25 155.39 174.03 155.43 174.8 155.69 175.53 155.54 176.24 155.6 176.94 155.82 177.65 155.94 178.37 155.83 179.08 155.94 179.78 156.04 180.49 156.14 181.22 156 181.95 156.12 182.67 156.28 183.41 156.18 184.13 156.41 184.88 156.3 185.61 156.36 186.33 156.51 187.09 156.6 187.84 156.8 188.62 156.63 189.37 156.84 190.11 157.06 190.87 157.08 191.62 157.25 192.34 157.47 193.31 157.51 193.94 157.41 194.57 157.44 195.2 157.51 195.88 157.81 196.58 157.56 197.29 157.7 197.99 157.5 198.68 157.57 199.36 157.8 200.08 157.71 200.71 158.09 201.44 158.08 202.12 158.28 202.71 158.68 203.47 158.74 204.22 158.76 205 158.76 205.75 158.91 206.49 159.09 207.18 159.34 207.29 159.94 207.11 160.57"/><path class="cls-2" d="M43.25,221.26c.15-.3.45-.55.33-1a1.28,1.28,0,0,0-.65-.56,3.72,3.72,0,0,0,0-1.25c-.52-1.38-.16-2.8-.26-4.19,0-.47.37-.83.32-1.35a8.89,8.89,0,0,1,.79-3.89,6,6,0,0,0,.15-.91l.06,0,.17-.11a38.57,38.57,0,0,1,3.25-2.42c.41-.33.83-.63,1.25-.94h.65c.35.42.72.84,1.08,1.28a3.32,3.32,0,0,1,.46.62,30.45,30.45,0,0,1,2.28,5.08,8.15,8.15,0,0,1,.26,1.68,2.9,2.9,0,0,0,.34,1.8,4.17,4.17,0,0,0-.35,1.85,8,8,0,0,1-.92,4A22.28,22.28,0,0,1,51,223.9a15.51,15.51,0,0,1-4,4.3c-.38.25-.61.73-1.15.76-.19-.94-1.17-4.71-1.85-4.7,0-.5-.44-.88-.43-1.42S43.11,221.84,43.25,221.26Z"/><path class="cls-2" d="M135.22,146a1,1,0,0,0-.55-.57,5.83,5.83,0,0,1-1.76-.12,5.15,5.15,0,0,0-1.68-.22c-.37,0-.81.11-1.09-.05a4.63,4.63,0,0,0-2.14-.27c-.31,0-.68.1-.93,0a6.12,6.12,0,0,0-2.61-.28,3.09,3.09,0,0,1-1.07-.12,2.59,2.59,0,0,0-1.22-.19h-2.35c-.26,0-.58.05-.77-.07a2.69,2.69,0,0,0-1.52-.23c-.89,0-1.78,0-2.67,0-.26,0-.59.09-.78,0a3.84,3.84,0,0,0-2.14-.26c-1.25,0-2.51,0-3.77,0l-.59,0h-1.64l-.16.09s-2.08,0-2.08-.4h-1.89c-.31-.06-.72.17-.9-.29h-5a2.44,2.44,0,0,1-.94,0c-.94-.47-1.94-.21-2.91-.28a5,5,0,0,1-1.55,0,5.83,5.83,0,0,0-2.29-.26H88L85.48,142A1.13,1.13,0,0,0,85,142h-.23l-3.3-.33-2.27,0-2.5-.42L74,141.07a4.47,4.47,0,0,0-1.78,0l-.25-.31H68.78a1.56,1.56,0,0,1-.76-.07,2.77,2.77,0,0,0-1.52-.23c-1,0-2,0-3,0a4,4,0,0,1-.92-.08,8.12,8.12,0,0,0-3.58,0v2.62a1.61,1.61,0,0,0,.06.77,2.85,2.85,0,0,1,.24,1.67,15.27,15.27,0,0,1,0,2,19.77,19.77,0,0,1-.48,2.55A7.11,7.11,0,0,1,57.11,153a15.19,15.19,0,0,0,3.66-.7c.6-.16,1.19-.35,1.86-.55a17.8,17.8,0,0,1,1.12,2.93c.29,1.05.58,2.09.91,3.13a25.36,25.36,0,0,1,.7,2.89c.23,1.23.74,2.38,1,3.61a22.79,22.79,0,0,0,1.57,4.79,1,1,0,0,1-.69.53c-1.3.34-2.54.9-3.88,1.13-.7.12-1.34.55-2.08.64a8.11,8.11,0,0,1-1.08.18,9.65,9.65,0,0,0-3.49.78,10.19,10.19,0,0,1-2.43.55l-1.14.52a1.59,1.59,0,0,1-.3.06,7.92,7.92,0,0,0-1.87.19,12,12,0,0,1-2.93.42,13.25,13.25,0,0,0,.92,3.21,12.85,12.85,0,0,0,1.42,2.88A28.91,28.91,0,0,1,52,182.71a23.24,23.24,0,0,1,2.5,5.43,3.25,3.25,0,0,1,.06.77,9.91,9.91,0,0,1,0,1.09,10.43,10.43,0,0,1-.11,2,14.26,14.26,0,0,1-1.55,4c-.62,1.06-1.36,2-2.06,3.06-.08.12-.26.17-.39.24.13.46.57.58.89.82s.9.68,1.34,1a.71.71,0,0,1-.19.86,6.36,6.36,0,0,1-2,1.43v.2h-.64c-.5.38-1,.74-1.51,1.13-1.27,1-2.74,1.78-3.92,2.93a.82.82,0,0,0-.2.12l-.07.05a6.08,6.08,0,0,1-.19,1.09,10.76,10.76,0,0,0-1,4.7c.06.63-.43,1.05-.39,1.62.13,1.68-.3,3.39.32,5.05a5.05,5.05,0,0,1,0,1.51c.34.14.56,1.47.38,1.84-.16.7.39,1.26.38,1.91s.47,1.1.53,1.71c.57,0,1.9,2.48,2.79,3.87a25.18,25.18,0,0,1,1.43,3.48,12.1,12.1,0,0,1,.76,4.38c-.05.73,0,1.47,0,2.14a15.14,15.14,0,0,1-.69,1.45c-.54.86-.93,1.85-1.93,2.34-.17.09-.27.31,0,.61a3.93,3.93,0,0,1,1.45.1,4.31,4.31,0,0,0,1.83.26c.21,0,.46-.06.62,0a5.25,5.25,0,0,0,2.45.29c.26,0,.59-.08.77,0,.69.44,1.43.22,2.14.27a2.88,2.88,0,0,1,1.52.27c.18.13.51.06.77.08a11,11,0,0,1,3,.19,2.38,2.38,0,0,0,.46,0c2.41.13,4.81.27,7.22.39,2.66.13,5.33.18,8,.4,1.78.14,3.56.17,5.33.25.26,0,.51,0,.75.07l.14.51c.31-.06.22-.46.61-.64,1.48.63,3.16.22,4.81.33.21,0,.42,0,.63,0s.46-.05.61,0a2.87,2.87,0,0,0,1.68.25c.94,0,1.88,0,2.83,0,.26,0,.58-.08.77,0a4.19,4.19,0,0,0,2.15.28,5,5,0,0,1,1.55,0,8,8,0,0,0,2.78.27c.31,0,.67-.09.94,0a9.27,9.27,0,0,0,3.23.29c.26,0,.58-.06.77.06a3.06,3.06,0,0,0,1.68.24,6.82,6.82,0,0,1,2,.07,6.35,6.35,0,0,0,2.15.24c.83,0,1.67,0,2.51,0,.82.49,1.73.24,2.6.29,1.87.12,3.76-.23,5.6.31h5.48l.51-.47c0-1.73.06-3.46,0-5.18a8.12,8.12,0,0,0-.53-2.06,9.33,9.33,0,0,0-3.3-4.08c-1.55-1.27-3.24-2.39-4.86-3.57a12.19,12.19,0,0,1-3.12-3.6,9.46,9.46,0,0,1-1.14-2.86c-1.57.12-3.12-.22-4.69-.22a1,1,0,0,1-.86-.47q-.11-.4-.27-1.08a15.59,15.59,0,0,0,.74-3.25A4,4,0,0,0,111,223a19.5,19.5,0,0,1,.44-4.82,12.4,12.4,0,0,0,.15-2.5,8.86,8.86,0,0,1,0-1.85,10.56,10.56,0,0,0-.11-1.7c0-.67,0-1.34.09-2a32.73,32.73,0,0,0,.19-3.32,1.26,1.26,0,0,1,1.32-.87c1.51.06,3-.22,4.52.23a2.41,2.41,0,0,0,1.25,0,15.7,15.7,0,0,1,3.75-.16c2.14,0,4.28,0,6.43-.13a.71.71,0,0,1,.15-.58,8.86,8.86,0,0,0,2.23-4.15,3.34,3.34,0,0,0,.12-.76c0-.42,0-.84,0-1.25a4.83,4.83,0,0,0-.06-1.71c-.26-.58-.22-1.2-.5-1.78s-.42-1-.65-1.54a28.62,28.62,0,0,0-2.88-5.09c-1-1.37-1.9-2.81-2.92-4.17a49.27,49.27,0,0,1-3-4.64c-.26-.44-.58-.83-.82-1.3a26.11,26.11,0,0,1-1.44-3.71c-.08-.24-.18-.48-.29-.78v-1.66a7.49,7.49,0,0,1,1.73-5.54,14.38,14.38,0,0,1,5-4.17c1-.52,2-1.08,3-1.62a11.16,11.16,0,0,0,4.67-4.94l.66-1.23a1.89,1.89,0,0,1,.1-.6c.33-.55.11-1.24.5-1.76a7.77,7.77,0,0,1,.29-2,11.55,11.55,0,0,0,0-2c0-.21-.07-.46,0-.62A4.37,4.37,0,0,0,135.22,146Z"/><path class="cls-3" d="M194.38,300.69a7.76,7.76,0,0,1-2.07-.46s0-.09-.06-.14a9.73,9.73,0,0,0,.74-2c.23-1.06.46-2.11.62-3.19a26.21,26.21,0,0,0,.53-3.85,3.46,3.46,0,0,1,.07-1.25,7,7,0,0,0,.25-2.32,5.36,5.36,0,0,1,.2-1.06,7.9,7.9,0,0,0,.41-1.66,19.23,19.23,0,0,1,.66-4.46,14.78,14.78,0,0,0,.32-2.47,26.75,26.75,0,0,1,.4-3.08,26.69,26.69,0,0,0,.53-3.22,7.6,7.6,0,0,1,.48-2.27c.5-1.23.32-2.57.76-3.79a10,10,0,0,1,.5-2.91c.47-2.12,1-4.22,1.34-6.37.21-1.54.83-3,.72-4.61.4-1.61.58-3.27,1-4.87a13.39,13.39,0,0,1,.52-2.74c-.08-.79.33-1.53.32-2.31a27,27,0,0,1,.85-5.21c.24-1.28.52-2.54.75-3.82.16-.86.21-1.75.41-2.61a23.84,23.84,0,0,0,.58-3.36,18.23,18.23,0,0,1,.37-2.78c.38-1.67.52-3.38.81-5.06.34-2,.76-4,1.16-5.94.17-.87.33-1.74.52-2.6.32-1.41.52-2.84.82-4.26.27-1.21.74-2.39.93-3.6.28-1.79,1-3.48,1.07-5.32.62-1.51.51-3.17.94-4.71.25-.87.12-1.8.39-2.62s.13-1.54.41-2.3.23-1.64.46-2.43a18.42,18.42,0,0,0,.39-2.3l.51-3.38c.14-1,.23-2,.44-2.92a14.47,14.47,0,0,0,.22-2.4c-.31-.21-.48,0-.64,0-1.56.84-3.24.63-4.9.63-.15,0-.29-.11-.44-.15a30.12,30.12,0,0,1-3.79-1.38c0-.33-.19-.71.19-1,.56.27,1.12.55,1.68.8a7.46,7.46,0,0,0,3.77.77c.37,0,.74-.14,1.07-.16a9.47,9.47,0,0,0,1.17.12,7.72,7.72,0,0,0,1.44-.71,18.63,18.63,0,0,1,3.65-2,23,23,0,0,1,4.07-1.47,15.37,15.37,0,0,1,4.9-.78,8.25,8.25,0,0,0,2.15-.34,7.87,7.87,0,0,1,1.68-.28,2.49,2.49,0,0,0,1.15-.44,4.63,4.63,0,0,0,.72-3.07,1.16,1.16,0,0,0-.72-.78,3.73,3.73,0,0,1-.64.16l-2.67.06a8.05,8.05,0,0,0-1.54.22,7,7,0,0,1-2.76.4c-.45-.09-.79.26-1.33.26a3.21,3.21,0,0,0-2.19-.2A15.78,15.78,0,0,1,218,165a4.76,4.76,0,0,1-2.39-.43,1.38,1.38,0,0,1,0-.94c.38-.06.8,0,1.14-.42.12-.48.16-1,.28-1.6a4.82,4.82,0,0,0,.38-1.82c-.09-.58.6-1,.15-1.69-.86-.08-1.45.74-2.28.77a16,16,0,0,0-3.72,2,9.88,9.88,0,0,1-1.47.37,4.24,4.24,0,0,0-2,.72,1.34,1.34,0,0,1-1,.23c.05-.51-.14-1,.1-1.54a4.92,4.92,0,0,0,.77-.11c.55-.16,1.08-.35,1.63-.51a5.12,5.12,0,0,0,2.11-.9,9.56,9.56,0,0,1,1.73-1,1.43,1.43,0,0,1,.71-.29c1.24.09,2.11-.82,3.21-1.11a1.63,1.63,0,0,0,1-1.46c.34-2.26.9-4.47,1.35-6.7s.81-4.49,1.42-6.69c.34-1.24.49-2.54.74-3.81s.56-2.63.82-4c.37-1.78.71-3.56,1.08-5.33s.79-3.64,1.16-5.47.63-3.57,1.06-5.33c.54-2.21.84-4.47,1.44-6.68.35-1.29.45-2.66.76-4,.52-2.21.81-4.48,1.43-6.67.09-.3,0-.63.11-.93a9.75,9.75,0,0,1,.29-.94l-.54-.8c.1-.43.44-.29.66-.39.06-.08.16-.15.17-.24.29-1.47.56-3,.85-4.42.36-1.78.73-3.55,1.1-5.33.27-1.31.57-2.62.84-3.94.36-1.78.66-3.57,1.08-5.33.2-.86.33-1.72.59-2.57.41-1.33.65-2.72.94-4.08s.59-2.73.86-4.1c.36-1.78.65-3.58,1.07-5.34s.8-3.64,1.14-5.47c.43-2.29.94-4.56,1.4-6.85.56-2.73,1-5.49,1.73-8.2.33-1.25.49-2.54.74-3.81s.56-2.64.83-4c.36-1.78.7-3.56,1.07-5.33s.79-3.65,1.16-5.47.64-3.57,1.06-5.33.79-3.65,1.15-5.47c.46-2.29,1-4.55,1.38-6.86.11-.76.39-1.5.53-2.26a16.58,16.58,0,0,0,.12-1.76,3.47,3.47,0,0,1,1.17-1.2,7.71,7.71,0,0,0,.95,0A9.93,9.93,0,0,0,253.12,0a1.54,1.54,0,0,1,.8.9c-.11.47-.61.3-.87.59a2.6,2.6,0,0,1-.9.48.85.85,0,0,0,0,.78c.26.51.64,1,.48,1.56.71,1,1.24,2.15,2.5,2.54l0,1a12.88,12.88,0,0,0,1.41,1.63,14.93,14.93,0,0,1,2.67,3.63c.52,1.08,1.05,2.15,1.6,3.21A8.71,8.71,0,0,0,264,20a2.84,2.84,0,0,1,.88.88A13.71,13.71,0,0,0,265.7,22a25.51,25.51,0,0,0,7.58,6.21c2.32,1.38,4.74,2.6,7.11,3.9,1.05.57,2.12,1.12,3.12,1.77a5.37,5.37,0,0,0,1.71.7c2.71.7,5.44,1.28,8.17,1.87s5.65,1.31,8.42,2.15a42.11,42.11,0,0,1,7.33,3,7.5,7.5,0,0,0,3.26.95,13.81,13.81,0,0,0,2.32.22c.57-.06,1.13-.2,1.69-.22,1.37,0,2.73-.06,4.1,0a8.42,8.42,0,0,1,2.56.58,11.43,11.43,0,0,0,3.36.6c2,.1,4.09,0,6.14,0,.83,0,1.62-.32,2.47-.29a14,14,0,0,0,2.49-.22,31.49,31.49,0,0,1,3.77-.09,22.53,22.53,0,0,1,5.11.55,3.41,3.41,0,0,0,.78,0A26.14,26.14,0,0,1,354,44.75c2.7.69,5.37,1.53,8.06,2.28,1,.28,2,.54,3,.76a5.12,5.12,0,0,1,1.89.65,5.07,5.07,0,0,0,1.49.41,103.43,103.43,0,0,1,10.13,3.48A79.59,79.59,0,0,1,386,55.91c.77.43,1.53.88,2.29,1.34a35.61,35.61,0,0,0,4.48,2.5,26.15,26.15,0,0,1,5.56,3.44c2.12,1.61,4.14,3.35,6.12,5.14a39.87,39.87,0,0,0,3.65,3,11.62,11.62,0,0,1,2.37,2.27,63.3,63.3,0,0,1,4.25,5.39,2.61,2.61,0,0,0,.43.45l.9.88a36,36,0,0,1,6.1,7.53,45.91,45.91,0,0,1,4.05,8.48c-.5,1.8-1,3.64-1.51,5.48-.38,1.4-.7,2.82-1.11,4.21-.79,2.63-1.37,5.31-2.07,8-.58,2.15-1,4.34-1.46,6.51-.63,2.83-1.25,5.66-2,8.47a58.83,58.83,0,0,1-1.83,5.93,2.66,2.66,0,0,0,0,2.66,15.78,15.78,0,0,0-.73,4.33,13.53,13.53,0,0,1-.77,3.63c-.39,1.18-.73,2.38-1.15,3.55a7.58,7.58,0,0,0-.55,3.51,11.26,11.26,0,0,1-.4,3.71c-.34,1.63-.67,3.25-.88,4.9-.08.62-.25,1.22-.35,1.83-.3,1.79-.59,3.58-1,5.35a53.72,53.72,0,0,1-1.51,6.28,10.48,10.48,0,0,1,.31,1.1,1.29,1.29,0,0,1-.05.76c-.52.91-.5,2-1.15,2.78-.14.53.16.9.19,1.26a6.22,6.22,0,0,0-.21,1.27c0,1-.41,1.83-.44,2.78a.56.56,0,0,1-.71.52,3.24,3.24,0,0,1,0-1.95c.24-1,.34-2,.53-3.06s.36-1.93.53-2.9c.13-.77.24-1.54.36-2.31.16-1.08.37-2.14.59-3.21.17-.81.2-1.65.32-2.47.14-1,.29-2,.45-2.93s.2-2,.47-3.07a20.4,20.4,0,0,0,.36-2.62,13.86,13.86,0,0,0,.39-2.94c.45-1.6.36-3.3.86-4.89-.08-1.06.38-2.05.36-3.1a11.93,11.93,0,0,1,.37-2.15c.28-1.68.4-3.39.82-5.06a17.45,17.45,0,0,0,.33-2.15c.29-2.22.69-4.41,1.08-6.61.34-1.93.64-3.87,1.11-5.79.3-1.2.49-2.44.67-3.67s.51-2.43.75-3.65.52-2.64.84-4c.88-3.57,1.65-7.16,2.75-10.67.6-1.93,1.15-3.87,1.93-5.74a11.46,11.46,0,0,0,.63-2.24,4.53,4.53,0,0,0-.6-3c-.81-1.51-1.64-3-2.57-4.46a85.87,85.87,0,0,0-5.1-7.3c-1.37-1.71-2.75-3.42-4.25-5a63.68,63.68,0,0,0-4.91-5.08c-1.42-1.23-2.76-2.55-4.2-3.76S399,67.05,397.56,66c-1.68-1.32-3.47-2.49-5.25-3.67-2.22-1.46-4.52-2.77-6.83-4.09s-4.92-2.49-7.43-3.61a85,85,0,0,0-10.5-3.83c-2.23-.66-4.48-1.27-6.77-1.72-1.93-.38-3.86-.76-5.82-1-1.81-.23-3.61-.41-5.42-.64-2.14-.27-4.29-.09-6.41-.3-4.29-.43-8.59-.1-12.87-.29-.88,0-1.76-.19-2.64-.24s-1.69,0-2.51-.09c-1.7-.26-3.43-.31-5.11-.63a38.46,38.46,0,0,1-4.89-.85,13.69,13.69,0,0,1-2.78-.39,33.93,33.93,0,0,1-4-.68c-1.41-.32-2.83-.59-4.25-.87-1.12-.22-2.24-.44-3.35-.7-2.32-.54-4.61-1.15-6.91-1.79-2.15-.59-4.26-1.29-6.35-2a69.72,69.72,0,0,1-9.38-4.2,61.27,61.27,0,0,1-7.63-4.87,63.46,63.46,0,0,1-7.66-6.71,39.35,39.35,0,0,1-5.67-7.07,1.42,1.42,0,0,0-.49-.59c-.63.58-.35,1.48-.76,2.13-.27,2.32-.94,4.57-1.35,6.86-.3,1.68-.79,3.32-1.12,5-.23,1.17-.47,2.33-.71,3.5s-.57,2.63-.84,4c-.37,1.77-.71,3.55-1.08,5.33-.33,1.62-.68,3.24-1,4.86-.28,1.32-.57,2.63-.85,3.95l-.75,3.65c-.38,1.82-.77,3.65-1.15,5.47-.34,1.62-.67,3.24-1,4.86-.28,1.32-.57,2.63-.86,4l-.81,3.79c-.37,1.78-.69,3.56-1.1,5.33-.31,1.36-.54,2.74-.88,4.1-.4,1.55-.67,3.14-1,4.71-.53,2.64-1.08,5.27-1.64,7.91-.27,1.26-.49,2.54-.83,3.79s-.45,2.44-.72,3.66c-.36,1.67-.77,3.32-1.14,5a13.44,13.44,0,0,0-.14,1.38c.4.83,1.22,1.15,1.89,1.68l0,.91c2.2,2,9.56,8.17,12.06,9.42.29.07.49-.15.79-.25a5.33,5.33,0,0,0,2.2,1.35c.8.32,1.7.6,2,1.57a29.79,29.79,0,0,0,6.32,2.95C265.09,127,268,128,271,129.06c1.7.62,3.4,1.24,5.08,1.93a31.73,31.73,0,0,0,3.7,1.16,3.21,3.21,0,0,0,.93,0l.79.6,6.52.83c.2.05.25.47.5.71.15-.05.33-.18.44-.14,1.18.42,2.44.41,3.63.79a3.85,3.85,0,0,0,1.08.11c.58,0,1.15,0,1.75,0l-.06.49c.32.25.7.13,1.05.14,1.73,0,3.46,0,5.19,0a8.71,8.71,0,0,1,2.28.46c.35.08.87.18.84.81,1.19,0,2.28,0,3.38,0a11.29,11.29,0,0,1,3.7.45,5.72,5.72,0,0,0,3.83-.08,2.77,2.77,0,0,1,.84,0l.68-.51a2.21,2.21,0,0,1,.32-.06c1,0,2,0,3-.06a18.22,18.22,0,0,1,5.54.76c2.11.51,4.19,1.15,6.34,1.51a25.71,25.71,0,0,1,2.56.61c2.5.69,5,1.19,7.55,1.78,3.23.75,6.42,1.59,9.62,2.47a88.33,88.33,0,0,1,11.4,4.07,59.91,59.91,0,0,1,7.73,4.06c1.77,1.1,3.52,2.22,5.22,3.43s3.36,2.46,5,3.75a90.59,90.59,0,0,1,8.87,8.21c2,2.06,3.83,4.27,5.64,6.51,1.58,1.95,3,4,4.4,6.08a81.16,81.16,0,0,1,5.94,10.62,2,2,0,0,1,.09.42c-1.23.55-2.56.42-3.75.84a1.39,1.39,0,0,1,0-1.52,16.45,16.45,0,0,0-2.05-3.53c-1.35-2.1-2.74-4.18-3.95-6.37-.32-.59-.78-1.11-1.16-1.67-1.92-2.78-3.83-5.57-5.76-8.35a16.13,16.13,0,0,0-1.25-1.61,25.61,25.61,0,0,0-3.75-4,3.32,3.32,0,0,1-1.36-1.48,1.6,1.6,0,0,0-.52-.58c-1.47-1.17-2.93-2.35-4.42-3.49-2.33-1.76-4.71-3.44-7.2-5-2.12-1.31-4.22-2.66-6.46-3.78-.84-.42-1.62-.95-2.45-1.38a7,7,0,0,0-1.58-.64,61.49,61.49,0,0,1-8.06-2.81A70.61,70.61,0,0,0,344.5,143a10.43,10.43,0,0,1-2.14-.37,29.93,29.93,0,0,1-5.93-1.17,8.32,8.32,0,0,0-3-.45l-1.38-.6c-2.84.51-5.73.17-8.6.25-2.07-.4-4.18-.12-6.25-.34-1.46-.16-2.93-.11-4.37-.32a23.15,23.15,0,0,0-3.42-.25c-.7,0-1.31-.34-2-.31a3.86,3.86,0,0,1-2-.24,1.57,1.57,0,0,0-.62-.05,11.39,11.39,0,0,1-2.32-.27c-.69-.2-1.47,0-2.15-.34a16.14,16.14,0,0,1-3.25-.4,24,24,0,0,1-3.23-.49,12.62,12.62,0,0,0-2.45-.38,30.22,30.22,0,0,1-4.45-.77c-1.87-.38-3.73-.83-5.57-1.39-1.49-.45-2.95-1-4.39-1.53-1.06-.42-2.09-.92-3.12-1.37H272a20.28,20.28,0,0,0-3.49-1.09,18.53,18.53,0,0,1-6.14-2.94,14.72,14.72,0,0,0-4.15-2.09c-.54-.15-1.15-.07-1.64-.46a14.71,14.71,0,0,0-1.33-.81c-1.94-1.21-3.92-2.37-5.82-3.65a48.79,48.79,0,0,1-8.92-7.62c-.32-.35-.65-.69-1-1.05l-1.35-.61c-.92-1.59-.92-1.59-1.7-2.07-.15.61-.34,1.19-.45,1.79-.29,1.53-.56,3.05-.95,4.56-.26,1-.52,2-.75,3-.3,1.31-.57,2.63-.85,4s-.5,2.43-.76,3.65l-1.14,5.47c-.32,1.57-.6,3.16-1,4.71s-.63,2.94-.92,4.41c-.23,1.12-.49,2.23-.73,3.34-.38,1.82-.76,3.65-1.15,5.47s-.74,3.33-1.08,5a12.17,12.17,0,0,0-.51,3.29c.67.59,1,1.5,1.81,2.07s1.08,1.39,1.83,1.87c1,.18,2.12-.24,3.12.43a5.24,5.24,0,0,1,.84,1.57v2.29a6.91,6.91,0,0,1,2.16,1.88l-2,2.12a3.7,3.7,0,0,1-.78,1.69c-.38.38-.29,1-.73,1.36a8.58,8.58,0,0,0-1,1,3.12,3.12,0,0,0-.46.62,3.24,3.24,0,0,1-1.17,1.24,9.6,9.6,0,0,0-3.79-1.08,17.92,17.92,0,0,1-3.67.91c-.32.39,0,.91-.25,1.34a7.31,7.31,0,0,0-.44,1.16c-.07.25-.09.51-.14.77a17.81,17.81,0,0,1-.51,2.1,14.21,14.21,0,0,0-.75,3.17,14.06,14.06,0,0,1-.5,2.11,25.29,25.29,0,0,0-1,5.17c0,.63-.43,1.17-.37,1.83a4.5,4.5,0,0,1-.22,1.69,8.9,8.9,0,0,0-.34,2.31,19.27,19.27,0,0,1-.57,3.21,1.11,1.11,0,0,0-.08.3c0,2.22-1,4.24-1.42,6.36-.38,1.77-.83,3.52-1.13,5.31a3.57,3.57,0,0,1-.21.9,10.58,10.58,0,0,0-.75,3.72l-.57,1.26c-.08.61-.16,1.27-.29,1.94a35.43,35.43,0,0,0-1,5.49,2.9,2.9,0,0,1-.26.73,22.23,22.23,0,0,0-.93,3.93,17.72,17.72,0,0,1-.83,3.3,5.53,5.53,0,0,0-.48,2,1,1,0,0,1-.08.45,37.13,37.13,0,0,0-1.49,5.87,9.78,9.78,0,0,0-.33,2.42l-.53,1.21a2,2,0,0,0-.06.28,12.37,12.37,0,0,1-.27,1.69,23.13,23.13,0,0,0-.69,4.13,4.25,4.25,0,0,1-.17.92c-.69,2.38-1.3,4.79-1.79,7.23-.4,2-.77,4.06-1.37,6.05a3.52,3.52,0,0,0-.12.92,4.79,4.79,0,0,1-.24,1.06,4.3,4.3,0,0,0-.4,2c-.4,1.66-.59,3.36-1.06,5a25.81,25.81,0,0,0-.84,4.09c-.05.46-.23.9-.31,1.36a33.82,33.82,0,0,1-1.13,5.15c-.29.87-.39,1.82-.61,2.72-.26,1.05-.63,2.07-.84,3.14a7.47,7.47,0,0,1-.65,1.74,4.58,4.58,0,0,0-.59,1.92c0,.65-.51,1.12-.84,1.63A18.92,18.92,0,0,0,194.38,300.69ZM229.63,175a6.29,6.29,0,0,1,1.37-1.77,2.67,2.67,0,0,0,.56-.75c.33-.92,1.12-1.61,1.35-2.59.05-.22.35-.38.49-.59s.59-.43.63-.81a1.54,1.54,0,0,0-.72-.6,3,3,0,0,1-2.63,1.4,19.33,19.33,0,0,1-2.82.42c.46.48,1,.07,1.4.39a.86.86,0,0,1,0,1,7.31,7.31,0,0,1-1.09-.17,4.64,4.64,0,0,1-1-.43,2.34,2.34,0,0,0-1.07-.2c-.63,0-1.25,0-1.88,0a1,1,0,0,0-.7.35c-.11.33-.22.67-.34,1s-.21.7,0,1a10.32,10.32,0,0,1,2.33,1,9.15,9.15,0,0,0,2.88,1.11C228.76,174.84,229.12,174.91,229.63,175Zm-3.88-15.4c-.25,1.19-.5,2.34-.72,3.49,0,.06.12.15.18.22a18.58,18.58,0,0,1,3.56-.66c-.33-.35-.58-.61-.82-.88a9.56,9.56,0,0,1-1.73-2C226.17,159.73,226,159.71,225.75,159.63Zm-3.12,15.67,2.37-.74a6.87,6.87,0,0,0-2-.77,1.66,1.66,0,0,0-.42.12A2.27,2.27,0,0,0,222.63,175.3Z"/><path class="cls-3" d="M108.17,143.54l-.6,0c0-.61,0-1.23-.07-1.84,0-.07-.08-.13-.14-.21-.12.17-.23.34-.35.5l-.41.54-.07,1h-.59a1.72,1.72,0,0,0-.31.17l-1.46,1.43a6,6,0,0,1-2.36,1.42c-.54.19-1,.45-1.59.6a8.59,8.59,0,0,1-2.09.45c-.47,0-.8.47-1.33.22-.36-.17-.74.27-1.18.16a1.2,1.2,0,0,0-.75.14,3.22,3.22,0,0,1-2,0,3.81,3.81,0,0,0-1.06-.19,12.77,12.77,0,0,1-4.12-.59,4.16,4.16,0,0,0-.93-.06c-1.77-.89-3.76-1.07-5.57-1.79a14.2,14.2,0,0,1-.81,2.15,18.85,18.85,0,0,1-1.25,2.72,1.85,1.85,0,0,1-1.27-.86,11.58,11.58,0,0,1,1.32-3.42v-1.48L74,141.07a4.47,4.47,0,0,0-1.78,0l-.25-.31V139a27.78,27.78,0,0,1-2.82-4.52,46.61,46.61,0,0,1-2.17-4.92,8.14,8.14,0,0,0-.37-2.68,15.45,15.45,0,0,1-.61-4.16.93.93,0,0,0-.51-1,41.68,41.68,0,0,1-6.44-.27l-.79.26a2.8,2.8,0,0,0-2.43,0,4.54,4.54,0,0,0-1-.24c-1.56,0-3.11-.22-4.67-.32a7.26,7.26,0,0,1-3.12-.87,3.86,3.86,0,0,1-1.81-1.41c-.57-1.1-1.33-2.12-1.24-3.47,0-.46,0-.94,0-1.41a4.46,4.46,0,0,1,1.81-2.3,32.77,32.77,0,0,1,3.05-2.15c1.15-.71,2.42-1.15,3.56-1.9a3.23,3.23,0,0,1,1.73-.65,1.22,1.22,0,0,0,.7-.32,1.59,1.59,0,0,1,.55-.28A10.31,10.31,0,0,0,58.73,105a.91.91,0,0,1,.42-.18,10.17,10.17,0,0,0,2.48-.88,16.09,16.09,0,0,0,1.84-.85c.57-.28,1.27-.06,1.81-.46A24.64,24.64,0,0,0,69,101.59c.16-.38.31-.71.44-1a8.92,8.92,0,0,0,.39-1.17,7.37,7.37,0,0,1,1.13-2.53c.55-.75,1-1.57,1.48-2.36a.57.57,0,0,0,.14-.28c.12-1.66,1.33-2.77,2.08-4.11a1.48,1.48,0,0,1,.66-.65,8,8,0,0,0,2.67-2.1c.74-.43,1.48-.81,2.2-1.21a7.15,7.15,0,0,1,5.38-1,4,4,0,0,0,1.08.14,11.7,11.7,0,0,1,3.05.6,6,6,0,0,0,1.35.37,1.92,1.92,0,0,1,1.23.62A7.22,7.22,0,0,0,94,88.17c.6.3,1,.91,1.66,1.14a2,2,0,0,1,.91.83c.73.63,1.59.73,2.15,1.47s1.24,1.09,1.82,1.75a4.81,4.81,0,0,0,3.76.17,11.66,11.66,0,0,0,2.62-.37C108,93,109,93,110,92.8a29,29,0,0,1,4.83-.26,12.18,12.18,0,0,0,3-.26,4.4,4.4,0,0,1,1.26,0h3.77a6.85,6.85,0,0,0,1.55-.19,6.9,6.9,0,0,1,3.1,0,9.7,9.7,0,0,1,2,.42,3.53,3.53,0,0,1,1.9,1.76c.1.24.21.48.33.74a9.06,9.06,0,0,1-.93,5.27,9.88,9.88,0,0,1-2,2.94c-.11.11-.22.22-.32.34a15.75,15.75,0,0,1-6.51,4.45c-1.06.4-2.07.94-3.11,1.42a25.07,25.07,0,0,1-3.93,1.46,22.22,22.22,0,0,0-2.61,1c-.13.05-.22.22-.31.32a9.52,9.52,0,0,1,0,3.87,4.79,4.79,0,0,0,.14,3,2.8,2.8,0,0,0-.23,1.35c0,1.15,0,2.31,0,3.46a2.89,2.89,0,0,1-.31,1.76l.25.63c-.38.9-.4,2-.8,3a2,2,0,0,0-.09.77,8,8,0,0,1-.39,2.76,6.63,6.63,0,0,0-.26,2.16c-.71,1.73-1.42,3.46-2.15,5.22ZM76.66,108.28c-.38.09-.42.27-.16.55.21-.18.15-.38.14-.57.4-.07.3-.38.32-.63a1.87,1.87,0,0,0,.57-2.08A.82.82,0,0,0,77,106v1.62C76.53,107.68,76.64,108,76.66,108.28Zm27,27.72a18.06,18.06,0,0,0,0-2.94c-.25-.19-.12-.61-.49-.69l-.43,1.38c.48.67.29,1.47.38,2.23,0,1.61,0,3.21,0,4.81a5.56,5.56,0,0,1-.28,2.43h-.39c0-.62,0-1.25,0-1.88-.1-1.39.24-2.81-.23-4.19a2.34,2.34,0,0,1,.05-1.08c0-.2.21-.39.09-.59-.27-.43-.12-.92-.22-1.38,0-.13-.1-.18-.24-.12l-.33.3c.06,1.7-.3,3.42.29,5.05a3.49,3.49,0,0,0-.3,1.42,11.3,11.3,0,0,0,.26,2.46c-.31-.06-.72.17-.9-.29a9,9,0,0,0-.26-2.63c.59-.87-.06-1.72-.07-2.58a8.54,8.54,0,0,0,0-2.62c-.61.22-1.15.39-1.68.62a24.52,24.52,0,0,1-4.24.86c-.87-.16-1.74-.28-2.6-.48s-1.88-.58-2.84-.74a7.26,7.26,0,0,1-2.9-1.07c-.07-.05-.1-.17-.17-.28a1.77,1.77,0,0,1,.59-1.15,22.47,22.47,0,0,0,2.74,1.21,14.72,14.72,0,0,0,4.51,1.07c.48,0,1,.39,1.47,0A2.32,2.32,0,0,0,97,135a3.61,3.61,0,0,1,.9-.23,6.46,6.46,0,0,0,3.84-2.44c.39-.47.67-1,1-1.54s.5-1.25,1-1.7c.11-.09.12-.28.19-.42a5.48,5.48,0,0,0,.37-2.3,6.9,6.9,0,0,1,.17-1.86,3.86,3.86,0,0,0,0-1.85,6.34,6.34,0,0,1-.18-1.54,15.51,15.51,0,0,0-.09-3,15.65,15.65,0,0,1-.22-2.63,7.92,7.92,0,0,0-.31-2.94c.08-.59-.33-1.1-.36-1.65a7.2,7.2,0,0,0-.86-2.8,5.07,5.07,0,0,1-.41-1.17,16.7,16.7,0,0,0-1.21-3.68c-.48-1-1-2-1.47-3.08-.63-.19-1.21.16-1.81.18a22.33,22.33,0,0,0-4,.71,5.76,5.76,0,0,1-1.2.27,12.11,12.11,0,0,0-3.21.58A25.84,25.84,0,0,0,84,103.49a.81.81,0,0,1-.31.05,3.49,3.49,0,0,0-1.59.59c-.11.36-.21.7-.3,1.05s-.19.81-.28,1.21a1.74,1.74,0,0,0-.06.45,3.3,3.3,0,0,1-.48,2.31c-.14.24-.14.5-.25.72a8.19,8.19,0,0,1-.88,2c-.76.86-1.54,1.71-2.23,2.49-1,.46-1.88.87-2.76,1.3a4.54,4.54,0,0,1-1.77.57,4.19,4.19,0,0,0-1.93.86l-.48.94a15,15,0,0,0,0,3,8,8,0,0,0,2.62,3.22,26.2,26.2,0,0,0,4.42.78,4.16,4.16,0,0,1,1.48,1.89c.73,1.39,1.14,2.9,1.81,4.35a4.49,4.49,0,0,0,.09,1.21c.47,1.41.23,2.89.51,4.32a22.84,22.84,0,0,1,.07,3.61,4.18,4.18,0,0,1-.23,1.22l-.1,2.08c2,.85,4.13.95,5.92,2a3.59,3.59,0,0,1,.83,0,5.51,5.51,0,0,0,2.13.31.85.85,0,0,1,.45.09,2.31,2.31,0,0,0,1.21.22,3.6,3.6,0,0,1,1.68.24,1.1,1.1,0,0,0,.9-.05,3,3,0,0,1,1.22-.2c.56,0,1.15.12,1.66-.27.94.07,1.79-.49,2.65-.37.35-.24.59-.52.87-.56a6.13,6.13,0,0,0,2.28-1.25.85.85,0,0,0,.54-.71c0-.83.09-1.67.06-2.51A41,41,0,0,0,103.65,136Zm2.36-2.84a6.59,6.59,0,0,0,0,1.72,10.21,10.21,0,0,1,.28,3.25,2.28,2.28,0,0,0,.44,1.26,2.45,2.45,0,0,0,.36-2.23,3.32,3.32,0,0,1-.2-1.07,7.29,7.29,0,0,0-.44-2.92c0-.2.13-.45.06-.61a3.68,3.68,0,0,1-.26-1.82,6.18,6.18,0,0,0-.06-1.88,10.45,10.45,0,0,1-.28-3.09,2.12,2.12,0,0,0-.13-.41c-.06.09-.12.13-.12.18,0,1.86-.31,3.73.24,5.59A8.51,8.51,0,0,1,106,133.16ZM75.42,112.7c.43-.14.58-.57.9-.83,1.18-1,1.56-2.41,2.2-3.69-.09-.64.44-1,.62-1.53,0-.52.25-1.05-.11-1.5-.34,0-.53.13-.77.54a3.75,3.75,0,0,1-.42,2.07,11.88,11.88,0,0,1-.88,2,7.52,7.52,0,0,1-1.27,1.9,1.09,1.09,0,0,0-.35,1,2.5,2.5,0,0,0-1.48.88c.69.27,1.07-.19,1.49-.38Zm54.39-17.62a4.57,4.57,0,0,0-4.52-1.17,10.62,10.62,0,0,1-2,.2c-1.1,0-2.2,0-3.31,0a2.87,2.87,0,0,0-.93,0,5.84,5.84,0,0,1-2.63.12,9,9,0,0,0-1.36.08c-.48,0-.88-.36-1.37-.24-.2,0-.45,0-.62,0a4.69,4.69,0,0,1-1.86.22,5.27,5.27,0,0,0-1.55.09c-.67.27-1.38.06-2,.34s-1.36.07-2,.35a6.49,6.49,0,0,1-2,.2c-.41,0-.89.34-1.2.21-.52-.22-.9.13-1.34.12s-.6.2-.9.23c-1.87.17-3.66.75-5.5,1a10.1,10.1,0,0,1-1.06.24,8.49,8.49,0,0,0-2.72.63,4.19,4.19,0,0,1-1.35.34,9.77,9.77,0,0,0-2.27.48c-.6.16-1.19.35-1.8.45a31.88,31.88,0,0,0-4.82,1.15,30.27,30.27,0,0,1-3.57,1c-1,.2-2,.43-3,.69a11.15,11.15,0,0,0-3,.85.51.51,0,0,1-.3.06,6.7,6.7,0,0,0-2.11.5c-1.09.29-2.2.57-3.29.88a27,27,0,0,0-5.34,2.06,5,5,0,0,1-1.43.61c-1,.15-1.82.76-2.81.88-1.61.8-3.31,1.41-4.92,2.26a55.4,55.4,0,0,0-4.8,2.88,2.61,2.61,0,0,0-.91.9,5.11,5.11,0,0,0,1.35,4.74,8.21,8.21,0,0,0,4,1.39,12.54,12.54,0,0,1,2.26.19c.92.27,2,0,2.93.28.5-.26,1-.1,1.55-.18s.86.29,1.36,0,1,.19,1.52.2h.31l4.09,0a.76.76,0,0,0,.76-.3c0-1.25-.61-2.44-.78-3.72-1-2.1-1.58-4.37-2.41-6.54,0-.08,0-.2,0-.31a1.28,1.28,0,0,1,1.42-.39,10.14,10.14,0,0,1,1.07,2.9,2.94,2.94,0,0,0,.29.72,20.94,20.94,0,0,1,.86,2.15c.41,1.48,1.17,2.88,1,4.4.44.63,1,.45,1.49.39l.89-3.38c.41-.41.85-.86,1.3-1.3s1.14-.46,1.64-.83a9.71,9.71,0,0,0-.2-2.47,31.49,31.49,0,0,0-.92-4.72,2,2,0,0,1,0-1.36,4.69,4.69,0,0,1,1.75-.64,25.51,25.51,0,0,0,2.54-.64,25.24,25.24,0,0,0,2.48-.88,5,5,0,0,1,1.19-.38c1.18-.35,2.4-.64,3.55-1.07a50.18,50.18,0,0,1,7.62-2.07,8.42,8.42,0,0,1,1.2-.3,23.44,23.44,0,0,0,3.2-.61,10.33,10.33,0,0,1,2.77-.37,2,2,0,0,0,.92-.11,3.91,3.91,0,0,1,1.94-.15,2.12,2.12,0,0,1,.24.35c.43,1,1,1.9,1.45,2.9a46.81,46.81,0,0,1,2.15,6,34.34,34.34,0,0,0,1.32,3.9c.64.23,1-.29,1.57-.28a10,10,0,0,0,3.3-.75,1.41,1.41,0,0,0,0-.48,13.33,13.33,0,0,1-.26-3,3.26,3.26,0,0,0-.13-.77,28.18,28.18,0,0,1-.79-3.95,7.44,7.44,0,0,0-.92-2.45,13.91,13.91,0,0,1-.95-1.94c.54-.62.54-.62,1.44-.76.44,1.25.92,2.5,1.32,3.78.6,1.92.72,4,1.22,5.9a12.22,12.22,0,0,1,.1,2.64l.47.54a5.6,5.6,0,0,1,1.4-.63,14.31,14.31,0,0,0,3-1,8.61,8.61,0,0,0,.89-.25,4.24,4.24,0,0,1,1.06-.21c.37-.27.64-.67,1.11-.83s1.17-.43,1.75-.66a9.51,9.51,0,0,0,2.46-1.3,8.5,8.5,0,0,1,1.7-1l2.39-2.32a6.76,6.76,0,0,0,1.59-2.29A7.62,7.62,0,0,0,129.81,95.08Zm-30.48-.83c0-.18,0-.31-.07-.37a9.54,9.54,0,0,0-2.61-2.21,2.67,2.67,0,0,1-.88-.63,6.09,6.09,0,0,0-2-1.44,6,6,0,0,1-2-1.25,1.32,1.32,0,0,0-.54-.31A3.13,3.13,0,0,0,90,87.63c-.61.07-.92-.45-1.44-.47-1,0-1.93-.41-2.94-.35-.26,0-.58.09-.77,0a2.64,2.64,0,0,0-2.4.14,5.61,5.61,0,0,0-1.79.91,14.48,14.48,0,0,1-1.49.81,12.67,12.67,0,0,0-1.37,1.28c-.19.17-.46.25-.66.41A4.69,4.69,0,0,0,75.68,92a8.49,8.49,0,0,1-1.15,1.63,10.22,10.22,0,0,1-2,3.85,7.48,7.48,0,0,0-1.23,3.39,1,1,0,0,0,1.11.12c.79-.23,1.58-.48,2.38-.69.49-.13,1-.14,1.51-.32a23,23,0,0,0,3.23-1.06,3.69,3.69,0,0,1,1.19-.33,15.92,15.92,0,0,0,3.62-.86.93.93,0,0,1,.46-.09,5.66,5.66,0,0,0,2.12-.39,10.23,10.23,0,0,0,2-.42,20.17,20.17,0,0,1,3.86-1.09c1.45-.37,2.93-.63,4.39-1Zm8.71,42a5.5,5.5,0,0,0,.68-1.54,13.61,13.61,0,0,0,.4-2.77,3,3,0,0,1,.16-1.06,21.44,21.44,0,0,0,1.1-6.25,1.4,1.4,0,0,1,0-.62,3.86,3.86,0,0,0,.24-1.84,4.85,4.85,0,0,1,.27-2.16,1.17,1.17,0,0,0,0-.62c0-.41-.38-.77-.25-1.2a2.25,2.25,0,0,0,0-1.18,2.55,2.55,0,0,1,0-1.4c.46-1.11,0-2.09-.18-3.11a13.9,13.9,0,0,1-2.82.55,4.7,4.7,0,0,0-2.37.73,2.82,2.82,0,0,0,0,.92,4.46,4.46,0,0,1,.23,1.69c0,1.57,0,3.15,0,4.72a6.12,6.12,0,0,0,.47,2.41,6.64,6.64,0,0,1,.48,2.73,2.91,2.91,0,0,0,.26,1.83c0,1.08.47,2.12.31,3.24a4.5,4.5,0,0,0,.12,1.71A28.59,28.59,0,0,1,108,136.22Zm-40.5-14.61c-.21,1.4.38,2.63.42,3.92.68,1.44.45,3.06,1,4.69a1.67,1.67,0,0,1,.34.5c.29.82.72,1.59,1.08,2.38s.88,1.64,1.34,2.45a.45.45,0,0,0,.51.28,14.62,14.62,0,0,0,0-2.65,11.34,11.34,0,0,1-.22-2c0-1.78,0-3.56,0-5.34a2.81,2.81,0,0,0-.09-.5,4.37,4.37,0,0,1-1.74-1.7c-.38-.73-.83-1.43-1.23-2.13A2.12,2.12,0,0,0,67.54,121.61ZM78,130.83a2.78,2.78,0,0,0-.38,1.65c0,1.36,0,2.72,0,4.09a2.25,2.25,0,0,1,0,.78c-.49,1.27-.21,2.57-.26,3.92,1,.27,1.42,1.23,2.42,1.66,0-.86.33-1.52.34-2.24a27.75,27.75,0,0,0,0-3.76,25.79,25.79,0,0,1-.29-3.27c0-.43-.26-.71-.61-1.26a15.37,15.37,0,0,1-.07,3.24,19.05,19.05,0,0,0-.21,2.8c-.08,1-.31,1.92-.41,2.91a.5.5,0,0,1-.3-.57,44.92,44.92,0,0,1,.23-5.61c-.37-.58-.16-1.39-.18-2.16,0-1.52,0-3,0-4.56,0-.18-.18-.37-.51-.19A4.14,4.14,0,0,0,78,130.83Zm-3.7-15.67a10.29,10.29,0,0,0,4.65-3.4,2.26,2.26,0,0,0,.51-1,10.07,10.07,0,0,1,.58-1.44,10.58,10.58,0,0,0,.46-1.48,18.42,18.42,0,0,1,.53-3c0-.06-.07-.18-.12-.28-.46-.18-.79,0-1,.52.12,1.61-.62,3.1-1.2,4.67A14.64,14.64,0,0,1,75.7,114c-.27.45-1.37,0-1.58,1Zm31.62,25.93a3,3,0,0,0,0-.67,11.25,11.25,0,0,1-.26-3.27,3,3,0,0,0-.11-1.24,3.28,3.28,0,0,1-.24-1.53,35.63,35.63,0,0,0-.33-3.73.27.27,0,0,0-.31-.28,5.81,5.81,0,0,0,0,3.75,3.48,3.48,0,0,0-.1,2.44,2.45,2.45,0,0,1,.08,1.55,3.24,3.24,0,0,0,.06,2.2,3.55,3.55,0,0,0-.14,2.42C105.27,142.4,105.39,141.57,105.9,141.09ZM76.94,127c-.31-.27-.46-.51-.79-.32-.22.77-.7,1.53-.15,2.36a4.16,4.16,0,0,1-.2,2.21c.4,1.48.11,2.91.23,4.3s-.45,2.88-.28,4.3c.23.26.37.6.8.4a2.61,2.61,0,0,0,.08-.42,10.3,10.3,0,0,0,0-1.57c-.06-.51.52-1,.08-1.49a2.94,2.94,0,0,0,0-1.5.67.67,0,0,1,.07-.45,2,2,0,0,0,0-1.66,2,2,0,0,1-.06-1.39,4.56,4.56,0,0,0-.08-2.92,5.19,5.19,0,0,0,.28-.87A6.32,6.32,0,0,0,76.94,127Zm-2,12.12c.28-.61,0-1.2.31-1.75s-.07-1.07,0-1.64a6.13,6.13,0,0,0,0-2.34,8.64,8.64,0,0,1-.21-2c0-.79,0-1.58,0-2.36a4.89,4.89,0,0,1,.27-2.3,1.8,1.8,0,0,0-.46-.19.64.64,0,0,0-.68.27,4.58,4.58,0,0,0,.14,2,1.79,1.79,0,0,1,0,1.38,3,3,0,0,0,0,2,5.76,5.76,0,0,1,0,2.48c0,.2-.15.37-.07.59a3.48,3.48,0,0,1-.08,2.44,1.72,1.72,0,0,0,0,.6C74.38,138.59,74.43,139,75,139.12Zm-2.39-11.47c.6,1.59.22,3.16.28,4.71s0,3.21,0,4.75l.44.42.39-.46a6.24,6.24,0,0,1,0-3.58,3.09,3.09,0,0,1-.3-1.63c0-1,0-2,0-3,0-.44-.22-.79-.26-1.23a1.77,1.77,0,0,0,.22-1.32c-.12-.15-.22-.32-.55-.25A4,4,0,0,1,72.59,127.65Zm2.9-21.48a4.57,4.57,0,0,1-2.17,3.56l.27.61c1.06-.08,1.22-1.11,1.81-1.68.13-.83.82-1.55.52-2.49Zm-1.31.22c-.43.24-1,.28-1.37,1,.52.32.21,1,.49,1.45.86-.36.8-1.2,1.1-1.81C74.49,106.79,74.43,106.59,74.18,106.39Zm1.65,3a7.43,7.43,0,0,1-.94,1.08,8.76,8.76,0,0,1-1.29.74,1.5,1.5,0,0,0,.38,1,1.92,1.92,0,0,0,.87-1.05c.2-.43.82-.44.93-1C75.82,110.05,76,109.91,75.83,109.43Z"/><path class="cls-3" d="M70.34,345.45a1.64,1.64,0,0,1,.41-.22l2.69-.47c0,.46-.47.32-.75.46,1.18,1.22,2.73,2.06,3.8,3.59A4.55,4.55,0,0,1,78,349.88c1.39,1.55,3,2.89,4.48,4.31.58.16.68.76,1,1.12A16.85,16.85,0,0,0,86,357.46c.68.48,1.34,1,2,1.44A13.94,13.94,0,0,1,90,360.49c.64.6,1.33,1.16,2,1.7a11.73,11.73,0,0,0,1.31.75,28.62,28.62,0,0,0,2.82,3.16c0,.43-.28.59-.57.71a10.57,10.57,0,0,1-4.37.95,35.46,35.46,0,0,0-4.25.05c-1.13.09-2.26.34-3.41.33-.5.31-1,.06-1.5,0-1.25-.11-2.51-.08-3.77-.08-1.62,0-3.25,0-4.87,0-.73,0-1.47,0-2.2.07s-1.32-.11-2-.09a6.21,6.21,0,0,1-2.63-.25,2.6,2.6,0,0,0-.93-.05,10.13,10.13,0,0,1-2.95-.29,4.67,4.67,0,0,0-1.15-.08,1.18,1.18,0,0,1-.84-.79c-.21-.87-.73-1.6-1-2.43,0-.1,0-.23-.09-.3-1.1-1.22-1.54-2.79-2.24-4.22-.06-.13-.22-.21-.33-.32-.36.22-.16.57-.24.84a22.46,22.46,0,0,1-1.15,3.19,12.71,12.71,0,0,0-1.15,3.43c-.6,0-1.16,0-1.73,0a7.06,7.06,0,0,1-1.7-.17,19.72,19.72,0,0,0-2.76-.39,8.66,8.66,0,0,1-1.52-.28,9.81,9.81,0,0,0-2.06-.14l-.44-.81a13.69,13.69,0,0,1,.41-4.64,3.58,3.58,0,0,0,.14-1.07,17.85,17.85,0,0,1,.37-3.72,10.11,10.11,0,0,1,.41-1.5,8.36,8.36,0,0,0,.51-2.42,21.69,21.69,0,0,1,.71-4.61,8,8,0,0,0,.25-2.16,6.22,6.22,0,0,1,.29-2.46,1.46,1.46,0,0,0,0-.47L49,342a10.74,10.74,0,0,1-.21,1.22,15.42,15.42,0,0,0-.45,2.44,7.93,7.93,0,0,1-.31,1.67,4.81,4.81,0,0,0-.35,2,1,1,0,0,1-.06.61c-.33.48-.15,1-.23,1.53A9,9,0,0,0,47.1,353a4.66,4.66,0,0,1-.42,1.82c-.23.55-.14,1.15-.34,1.66a4.66,4.66,0,0,0-.24,1.68,9.32,9.32,0,0,1-.55,4.15,2.4,2.4,0,0,0-.09.77c-.05.4-.11.8-.16,1.2.07.08.12.22.2.23a12,12,0,0,0,2.58.48c.47,0,1,0,1.42,0s.74.37,1.2.11.87.23,1.35.22a3,3,0,0,0,1.11-.06,3.45,3.45,0,0,0,.32-.49c.3-.71.6-1.43.89-2.15a4.46,4.46,0,0,0,.24-.73,12.35,12.35,0,0,1,.83-2.65,3.13,3.13,0,0,0,.39-1.33,8.32,8.32,0,0,1,.73-2.7.29.29,0,0,1,.35-.22c.84,1.84,1.75,3.64,2.48,5.52s2.07,3.44,2.74,5.35a6.35,6.35,0,0,1,1.63.14,11.06,11.06,0,0,0,2.47.31,15.42,15.42,0,0,0,2.62.27c2.31,0,4.61,0,6.92,0a3.59,3.59,0,0,0,1.09,0,12.37,12.37,0,0,1,3.43-.23,1.89,1.89,0,0,1,.92.09,3.82,3.82,0,0,0,2.47.09,17.46,17.46,0,0,1,2.48-.23,3.23,3.23,0,0,0,.94,0,7.53,7.53,0,0,1,2.79-.25l2.68,0a.61.61,0,0,0,.66-.47c-.2-.45-.68-.48-1-.75s-.63-.38-.9-.61c-.64-.53-1.25-1.1-1.89-1.63a14.92,14.92,0,0,1-1.23-1,9.16,9.16,0,0,0-2.07-1.66,9.33,9.33,0,0,1-1.59-1.27c-.77-.76-1.77-1.29-2.31-2.28a1.19,1.19,0,0,0-.34-.33,17,17,0,0,1-2.68-2.41c-1.08-1.06-2.14-2.16-3.24-3.2-.6-.58-1.3-1.06-1.91-1.62a21.63,21.63,0,0,0-2.38-2A3.79,3.79,0,0,1,70.34,345.45Z"/><path class="cls-3" d="M144.36,267.66a3.69,3.69,0,0,1,2.24.33,12.5,12.5,0,0,1-.6,2.71,6.14,6.14,0,0,1-.74,1.86c-.44.75-.78,1.57-1.16,2.35-.6,1.2-1,2.5-1.63,3.68a4.84,4.84,0,0,0-.36,1,31.61,31.61,0,0,1-2.44,6.52,3.84,3.84,0,0,0-.67,2.21c0,.14-.11.29-.16.43l-.78,2a.73.73,0,0,0,.22.58c.26.33.69.17,1,.35a7.2,7.2,0,0,0,2.13.92,1.81,1.81,0,0,1,.69.35,8.57,8.57,0,0,0,2.52,1.15c.57.2,1.06.68,1.75.57.12-.11.27-.19.34-.32a5.19,5.19,0,0,0,.65-1.23,6.61,6.61,0,0,1,1.7-2.57c1-1.13,1.83-2.41,2.78-3.58.18-.23.21-.57.52-.63a24,24,0,0,1,5,8.85,7.16,7.16,0,0,0,1.52.46,41.54,41.54,0,0,0,4.18.32,1.93,1.93,0,0,1,.93.1,4.74,4.74,0,0,0,2,.24l2.36,0a8.5,8.5,0,0,1,3.83.5,1.78,1.78,0,0,0,.77.08l2.51,0a2.79,2.79,0,0,1,1.09.08,3.13,3.13,0,0,0,1.53.22,5.72,5.72,0,0,1,2.42.48,1,1,0,0,0,1,.05c-.34-.39-.64-.8-1-1.15a10.4,10.4,0,0,1-1.51-2,21.69,21.69,0,0,0-2.77-3.58,26,26,0,0,1-4.14-5A26.8,26.8,0,0,1,170,282.2a13.61,13.61,0,0,0-2.16-3.57,22.84,22.84,0,0,1-1.53-2.16,4.2,4.2,0,0,0-.51-.78,24,24,0,0,1-2-2.39,7.71,7.71,0,0,1-1.25-2.41l-.84-1a9.93,9.93,0,0,0,2.82.31c.12,0,.24.16.36.24l-.58.19a22,22,0,0,0,1.85,3.08c1,.64,1.41,1.75,2.15,2.6a5,5,0,0,1,.81,1.63,2.53,2.53,0,0,1,1.16,1.21c.69,1.33,1.4,2.66,2.15,4,.5.85,1,1.71,1.47,2.55a6.52,6.52,0,0,0,2,2.35,32.18,32.18,0,0,1,4.25,5.13,3.28,3.28,0,0,0,1,1.15,3.32,3.32,0,0,1,.72.81l2.5,3.46,0,.56a5.85,5.85,0,0,1-2.59-.26,2.39,2.39,0,0,0-.93,0c-2.23,0-4.47,0-6.7,0a3.3,3.3,0,0,1-1.66-.23,3.31,3.31,0,0,0-1.23-.05l-.25-.33c-1.29,0-2.65-.08-4,0a13.56,13.56,0,0,1-3.54-.42,11.1,11.1,0,0,0-1.38-.18,6.39,6.39,0,0,1-2.17-.25,3,3,0,0,0-1.09-.08,6.53,6.53,0,0,1-2.93-.87c-.34-2.31-1.65-4.16-2.58-6.17a2.18,2.18,0,0,0-.85-1.09c-.36,0-.51.32-.69.55a26.69,26.69,0,0,0-3.4,4.82,17,17,0,0,1-1,1.75,8.1,8.1,0,0,1-.6.74c-1.24-.66-2.35-1.3-3.51-1.87s-2.25-1.06-3.4-1.55-2.39-1-3.66-1.47a7,7,0,0,1,1.17-2.83,2.64,2.64,0,0,0,.46-1.14,18.7,18.7,0,0,1,1.21-3.66,28.87,28.87,0,0,0,1.55-4.38,10,10,0,0,1,.54-1.45,36.79,36.79,0,0,0,1.77-4.14,4.59,4.59,0,0,1,.63-1.25,10.51,10.51,0,0,0,1.1-2.23,4.69,4.69,0,0,0,.34-2.89Z"/><path class="cls-3" d="M38.19,211.79l1.57-.87c.1.46.49.66.78,1a2.93,2.93,0,0,1,.88,2.11,5.75,5.75,0,0,1-.59,3.06,2.46,2.46,0,0,0-.33.28,9.29,9.29,0,0,1-4.74,3.1,1,1,0,0,0-.29.12,24.5,24.5,0,0,1-4.28,1.75c-.78.27-1.57.5-2.35.76a.5.5,0,0,0-.28.66l.78.45h1.73a7.39,7.39,0,0,0,1.25,0c1.93-.39,3.75-1.15,5.67-1.57a.48.48,0,0,0,.26-.16,2.85,2.85,0,0,1,1.55-.68,2.85,2.85,0,0,0,2-1.53,2.67,2.67,0,0,1,.33-.37l.76-.06a1.28,1.28,0,0,1,.65.56c.12.41-.18.66-.33,1a1.21,1.21,0,0,0-.7.31c-.37.37-.76.73-1.11,1.11a21.68,21.68,0,0,1-7,4.61,11.4,11.4,0,0,0-2.56,1.11,2.89,2.89,0,0,0-1.51,1.38c0,.33,0,.52.22.65a5.09,5.09,0,0,0,2.44-.27c2.44-.85,4.88-1.66,7.31-2.53a7,7,0,0,0,3.4-2.64,2.31,2.31,0,0,0,.22-.73c.68,0,.72-.8,1.14-1h.25a.25.25,0,0,1,.15,0l1.08.77a3.45,3.45,0,0,1-.77,1.17c-.36.35-.68.75-1,1.13a1.15,1.15,0,0,0-.69.33c-.47.48-1,1-1.45,1.43a7.2,7.2,0,0,1-1.16,1,39.49,39.49,0,0,1-5.2,3.08,2.54,2.54,0,0,0-.53.31c-.07.05-.07.18-.09.27a.83.83,0,0,0,.59.47,29.58,29.58,0,0,0,5.07-1.34,7.9,7.9,0,0,0,2.46-1.28c.7-.53,1.35-1.12,2-1.69.54,0,.77-.51,1.15-.76a15.51,15.51,0,0,0,4-4.3,22.28,22.28,0,0,0,1.43-2.9,8,8,0,0,0,.92-4,4.17,4.17,0,0,1,.35-1.85,2.9,2.9,0,0,1-.34-1.8,8.15,8.15,0,0,0-.26-1.68,30.45,30.45,0,0,0-2.28-5.08,3.32,3.32,0,0,0-.46-.62c-.36-.44-.73-.86-1.08-1.28h-.65a5.6,5.6,0,0,1,1.88-1.24v.71a16,16,0,0,1,2.63,3.93c.34.6.36,1.29.65,1.88s.44,1.16.67,1.73a1,1,0,0,1,.1.29,36.68,36.68,0,0,1,.33,5.45c-.07.72-.5,1.38-.31,2a3.76,3.76,0,0,0-.64,1.67.42.42,0,0,1-.05.3c-.88,1-1,2.35-1.8,3.41a19.75,19.75,0,0,1-4.62,4.77,6.91,6.91,0,0,0-.76.77,20.2,20.2,0,0,1-3.78,2.45,13.2,13.2,0,0,1-4.42,1.4c-.52,0-1,.29-1.52.31a9.91,9.91,0,0,1-2.73-.42c-.41-.57-.41-.57-.43-1.44.56-1.12,1.76-1.39,2.7-2-.63-.23-.63-.24-1.2,0a19.2,19.2,0,0,1-2.5.81,6.94,6.94,0,0,1-2.17.22c-.39-.23-.89-.3-1.22-.84v-1.67a5.11,5.11,0,0,1,1.9-1.72A23.71,23.71,0,0,1,35,225.77c1.07-.4,1.92-1.17,2.93-1.66a.43.43,0,0,0-.58-.27,28.44,28.44,0,0,1-4.38,1c-.15,0-.3.16-.43.14-1-.16-2,.22-3.2,0a2.85,2.85,0,0,1-2.13-1.53,1.53,1.53,0,0,1,1.16-1.27c.77-.29,1.54-.6,2.33-.84,2.13-.64,4.17-1.55,6.22-2.39a5.27,5.27,0,0,0,2.7-2.26c.25-.46.56-.87.84-1.31v-1.57a4.17,4.17,0,0,0-1.49-2Z"/><path class="cls-3" d="M406.52,186.87l-.33-.07c.13-.41.25-.83.39-1.29A2.1,2.1,0,0,1,406.52,186.87Z"/><path class="cls-4" d="M254.52,358.56c-.46-1.53-.68-3.12-1.12-4.66a80.9,80.9,0,0,0-3.06-8.44c-.51-1.25-1.19-2.43-1.64-3.69a38,38,0,0,0-3.13-6.08,59.87,59.87,0,0,0-3.62-5.45,58.31,58.31,0,0,0-5.19-6.25,48.48,48.48,0,0,0-4.11-3.87c-1.22-1-2.32-2.12-3.54-3.1-1.78-1.43-3.64-2.77-5.53-4.06a79.19,79.19,0,0,0-13.49-7.38,13.78,13.78,0,0,0-3.05-1.12c-.37-.69-1.18-.68-1.65-1.06l-.79.17a9.74,9.74,0,0,0-1.41-.62c-1.8-.45-3.54-1.12-5.35-1.49a29.28,29.28,0,0,0-3.46-.77,7.76,7.76,0,0,1-2.07-.46s0-.09-.06-.14a3.62,3.62,0,0,1-1.81-.26.84.84,0,0,0-.45-.05,10.85,10.85,0,0,1-2.12-.31,10.18,10.18,0,0,1-2-.28,6,6,0,0,0-1.53-.08,5.85,5.85,0,0,1-2.59-.26,2.39,2.39,0,0,0-.93,0c-2.23,0-4.47,0-6.7,0a3.3,3.3,0,0,1-1.66-.23,3.31,3.31,0,0,0-1.23-.05h-.78c-4,0-7.93,0-11.9,0a2.36,2.36,0,0,0-1.52.21,1.89,1.89,0,0,0-1.8,0,2.89,2.89,0,0,0-1.54-.17H136.47c-.3,0-.63-.11-.92.25.14.73-.31,1.45-.29,2.23s0,1.68,0,2.51,0,1.57,0,2.36a2.25,2.25,0,0,0,0,.78,6.65,6.65,0,0,1,.24,2.47c0,.89.06,1.78.05,2.66a2.62,2.62,0,0,0,.27,1.21,8.92,8.92,0,0,0,.11,2.42,8.84,8.84,0,0,0,0,3.12,21.08,21.08,0,0,1,.21,3.26c0,1.52.09,3,0,4.55,0,1.16.31,2.26.29,3.41,0,3.2.06,6.39,0,9.58s.12,6.36-.24,9.54c-.28,2.48,0,5-.31,7.49-.23,2.23-.07,4.5-.08,6.75a5.22,5.22,0,0,0-.16,2.39c-.23.49,0,.79.54,1h3.67a2.94,2.94,0,0,1,.94,0,8,8,0,0,0,2.79.24c2.46,0,4.93,0,7.39.06a2.45,2.45,0,0,1,.94,0,4.46,4.46,0,0,0,2,.22c8.7,0,17.41.08,26.12,0a71.59,71.59,0,0,0,9.71-.26c1.7-.23,3.43,0,5.15-.31a25.5,25.5,0,0,1,3.61-.09,2.25,2.25,0,0,0,.94,0,5.29,5.29,0,0,1,2.16-.23,24.92,24.92,0,0,0,3.46-.09,45.38,45.38,0,0,1,5.46-.27,2.52,2.52,0,0,0,.78,0,9.2,9.2,0,0,1,2.95-.25,19,19,0,0,0,2.83-.07,34,34,0,0,1,4.83-.28,2.23,2.23,0,0,0,.78,0,5.12,5.12,0,0,1,2.32-.24c2.2.06,4.36-.48,6.56-.36a.53.53,0,0,0,.31,0,4.83,4.83,0,0,1,2.16-.26,7.79,7.79,0,0,0,1.88-.08,7.63,7.63,0,0,1,2.32-.23c1.51,0,3-.49,4.51-.36a.42.42,0,0,0,.16,0,4.78,4.78,0,0,1,2.15-.28,4,4,0,0,0,1.25-.06,6.74,6.74,0,0,1,2.48-.24c1.63,0,3.25,0,4.88,0,.25,0,.52.1.74-.11A20.64,20.64,0,0,0,254.52,358.56ZM148,316.27a1.41,1.41,0,0,0,.38-.29,1.41,1.41,0,0,1-.38.29,4.22,4.22,0,0,1-1.35-.55A4.22,4.22,0,0,0,148,316.27Zm28.18,33.38a.62.62,0,0,0-.18.14,2.64,2.64,0,0,1-1-.19,2.64,2.64,0,0,0,1,.19.62.62,0,0,1,.18-.14,1.77,1.77,0,0,0,.39-.3A1.77,1.77,0,0,1,176.2,349.65Zm46.38-31.32a.44.44,0,0,1-.22,0A.44.44,0,0,0,222.58,318.33Zm1.21,20.33c-.1.43-.2.83-.29,1.23a1.59,1.59,0,0,1,.21.41,1.59,1.59,0,0,0-.21-.41C223.59,339.49,223.69,339.09,223.79,338.66Zm-14.32-14.8.1-.31-.1.31Z"/><path class="cls-3" d="M147.21,267.91l-.6.08C146.82,267.6,146.86,267.6,147.21,267.91Z"/><path class="cls-3" d="M94.16,126.28c1-.45,1.75-1,2.57-1.28,0-.47-.31-.57-.51-.78a3.23,3.23,0,0,0-.57-.54,5,5,0,0,1-1.29-1.3,7.63,7.63,0,0,0-1.69-1.81,5.64,5.64,0,0,1-.87-.89,7.24,7.24,0,0,1,3.29-1.7l1.38-1.15a1.07,1.07,0,0,0-.65-.83,6.69,6.69,0,0,1-1.66-1.43,5.58,5.58,0,0,0-.79-.75,3.94,3.94,0,0,1-1.64-1.62c-.28-.67-.78-1.19-1-1.91a15.79,15.79,0,0,0-1.59-3,3.42,3.42,0,0,1-.7-2.66l1.3-.41c.09.18.15.32.23.45.37.56.22,1.29.73,1.85a7.59,7.59,0,0,1,.93,1.79,16.85,16.85,0,0,1,.75,1.54c.19.48.68.76.75,1.35,0,.37.47.64.84.88a9.58,9.58,0,0,1,1.76,1.5,12.63,12.63,0,0,0,2.06,1.63,10.71,10.71,0,0,1,1.62,1.55c-.36.6-1,.79-1.45,1.2s-1.06.84-1.59,1.26-1.21.32-1.73.79c.46,1.14,1.45,1.78,2.17,2.64a17.19,17.19,0,0,0,2.53,2.18c-.15.8-.87.83-1.27,1.2a8,8,0,0,1-1.51.79c-.51.27-1,.56-1.65.92l-1.71,0c-.68,0-1.37,0-2,0s-1.2-.25-1.81-.15a25.47,25.47,0,0,0-3.28-.86c-.57-.26-.92-.85-1.53-1.06A3.71,3.71,0,0,1,83,124.44c-.41-.51-1.29-.24-1.52-1.06a2,2,0,0,1,1-.95,29.25,29.25,0,0,0,4,3.14,5,5,0,0,1,2.78.93,9.88,9.88,0,0,0,2.66-.18A9.2,9.2,0,0,1,94.16,126.28Z"/><path class="cls-3" d="M87.31,116l-2.25.78-1.27-.4a4.69,4.69,0,0,0-2-1.63,2.76,2.76,0,0,1-.43-1.22l-.57-.45v-.47c.27-.52.85-.57,1.22-.9.42.37.84.62.9,1.13a1.37,1.37,0,0,0,1,1.12,2.32,2.32,0,0,1,1.16,1c.51.1.89-.23,1.39-.43a6.26,6.26,0,0,1,1.19-1.6c0-.77.43-1.5.23-2.38l.62,0,.58.05c.08.14.16.22.17.31a1.37,1.37,0,0,1-.16.91c-.16.23.1.38.06.71C88.41,113.46,88.35,115,87.31,116Z"/><path class="cls-3" d="M101.17,105.7a7.74,7.74,0,0,1-.32,3.08,10.14,10.14,0,0,0-.31,1.72c-.52,1.08-1.63,1.2-2.36,1.81H97c-.62-.74-1.65-.69-2.51-1.17-.33-.51-.48-1.21-1.13-1.56-.07,0,0-.29-.06-.58l.88-.86c.47-.07.4.36.64.42s.36.35.48.57.26.44.41.68l1.17.1.76.57c.51.09.8-.3,1.19-.41a11.83,11.83,0,0,0,1-4.23l.94-.42Z"/><path class="cls-5" d="M157.07,300.06a3.64,3.64,0,0,1,.16,1.92c-.28.38-.61.23-.91.24a3.81,3.81,0,0,1-1.19-1,2.44,2.44,0,0,1,.14-1.2A1.89,1.89,0,0,1,157.07,300.06Z"/><path class="cls-5" d="M207,308.38a1.25,1.25,0,0,1-.57,1.21,2.66,2.66,0,0,1-1.49-.21c0-.65-.54-1.18-.38-1.88l.79-.18C205.86,307.7,206.67,307.7,207,308.38Z"/><path class="cls-5" d="M137.17,363.12a1,1,0,0,1,1.15.39l.34,1.26a1.58,1.58,0,0,1-1.66.74A5.37,5.37,0,0,1,137.17,363.12Z"/><path class="cls-5" d="M139.94,314c.07.54.16,1-.33,1.36-.3.2-.67.08-1,.09A1.31,1.31,0,0,1,139.94,314Z"/><path class="cls-5" d="M200.23,336.35a3,3,0,0,1-.47,2.3c-.51.22-1.07.07-1.47.38a.81.81,0,0,1-.19,0l-.72-.63.25-1.43a2.42,2.42,0,0,1,.72-.88C199,335.82,199.57,336.31,200.23,336.35Z"/><path class="cls-5" d="M228.56,324.91a1.39,1.39,0,0,1-.32-1.27l1.47-1.16c.85.37,1.22,1.23,1.85,1.71-.08.53-.53.4-.73.63a1.8,1.8,0,0,1-.45.37c-.52.17-.78-.07-1.07-.15A6.94,6.94,0,0,0,228.56,324.91Z"/><path class="cls-5" d="M175.79,360.51c.34-.71,1-1,1.35-1.48l1,.3c.4.35,0,.92.34,1.27-.17.84-1.07,1.15-1.27,2.11A5.57,5.57,0,0,0,175.79,360.51Z"/><path class="cls-5" d="M231.42,352.68c.37-.1.69.54,1.23.33l.52,1c-.22.54-.28,1.19-1.08,1.47a3.33,3.33,0,0,1-1.66-1.12c0-.4.35-.55.47-.84S230.92,352.87,231.42,352.68Z"/><path class="cls-5" d="M236.41,330.7c-.37.56-.24,1.21-.81,1.61-.19.15-.32-.14-.52-.13s-.42,0-.63,0a2.6,2.6,0,0,1-.94-.84c.06-.74.73-1.07,1.06-1.56C235.38,329.67,235.73,330.28,236.41,330.7Z"/><path class="cls-5" d="M199.26,350.62l-.6-.3c-.22-.59-.43-1.17-.66-1.81a2.16,2.16,0,0,1,2.14-.45,1.35,1.35,0,0,1,.49,1.3C200.3,349.84,200,350.43,199.26,350.62Z"/><path class="cls-5" d="M231,363.65l-.6-.3c-.22-.59-.43-1.17-.66-1.81a2.16,2.16,0,0,1,2.14-.45,1.35,1.35,0,0,1,.49,1.3C232,362.87,231.72,363.46,231,363.65Z"/><path class="cls-5" d="M201.33,358.61l-.07.72a2.16,2.16,0,0,1-2.15.46.78.78,0,0,1-.49-.83,4.15,4.15,0,0,1,.93-1.45.67.67,0,0,1,.78.11C200.67,357.94,201,358.27,201.33,358.61Z"/><path class="cls-5" d="M186.07,303.94c0-.34,0-.54-.06-.75,0-.05,0-.09.06-.15.25-.34.69-.41,1-.66a4,4,0,0,1,1.24.6,2.46,2.46,0,0,1,.08,1.13l-.89.94h-.62c-.05,0-.11,0-.13-.08Z"/><path class="cls-5" d="M180.74,346l-.94-.77a1.79,1.79,0,0,1-.11-1.07l1.21-.88a1.35,1.35,0,0,1,1.21.9c.11.51-.33.85-.34,1.35S181.36,346.12,180.74,346Z"/><path class="cls-5" d="M240.2,353.66c.17-.45.75-.38.69-.85.57-.06.7.5,1.12.6a1.44,1.44,0,0,1,.79.73c-.41,1.18-.41,1.18-1.38,1.28a2.43,2.43,0,0,1-.83-.66C240.41,354.37,240.52,353.91,240.2,353.66Z"/><path class="cls-5" d="M178.1,353.85c.67-1.16,1.33-1.37,2.44-.74a2.57,2.57,0,0,1-.36,2C179.05,355.34,178.55,354.63,178.1,353.85Z"/><path class="cls-5" d="M169.24,321.66c.24-.49.75-.64.89-1.08.65,0,1.23,0,1.63.56a1.7,1.7,0,0,1-.86,1.88c-.49.05-.75-.26-1.1-.36C169.59,322.37,169.28,322.15,169.24,321.66Z"/><path class="cls-5" d="M144.39,304.05a3.16,3.16,0,0,1-2.77-.43,4.59,4.59,0,0,0,.3-1.48c.62-.42.86.22,1.26.37.33,0,.65-.32,1,0C144.53,302.92,144.23,303.44,144.39,304.05Z"/><path class="cls-5" d="M219.19,362.85l-.65.77a5.51,5.51,0,0,1-1.58-.73c-.21-.36,0-.62.14-.89s0-.53.32-.75h1.35a1,1,0,0,1,.52.59Z"/><path class="cls-5" d="M248.16,347.22a3.08,3.08,0,0,1-1.62-.07c-.24-.59,0-1.21-.09-1.75a.86.86,0,0,1,1.24-.37,1.85,1.85,0,0,1,1.14,1C248.81,346.44,248.29,346.72,248.16,347.22Z"/><path class="cls-5" d="M163.2,335.43l.92-1.25a2.08,2.08,0,0,1,1.24.36l.25,1a3,3,0,0,1-1.26,1.68c-.35,0-.37-.3-.5-.52C163.6,336.29,163.65,335.78,163.2,335.43Z"/><path class="cls-5" d="M202.08,343.9l.8-.89,1.37.39.62.63-.06.72a2,2,0,0,1-1.21.63A2.27,2.27,0,0,1,202.08,343.9Z"/><path class="cls-5" d="M139,309.48c-.44.07-.67-.37-1-.28a3.27,3.27,0,0,1-.85-1.2c.4-.89,1.36-.59,1.92-1,.88.57.47,1.33.51,1.94C139.37,309.24,139.2,309.43,139,309.48Z"/><path class="cls-5" d="M146.32,315.35a1.46,1.46,0,0,1,.31-1c.53-.09,1-.63,1.61-.35a2.37,2.37,0,0,1,.77.87c-.26.49-.38,1.11-1,1.43A2.74,2.74,0,0,1,146.32,315.35Z"/><path class="cls-5" d="M209.42,356.85a5.19,5.19,0,0,1,1.65.76,2.82,2.82,0,0,1-1.07,2,4.45,4.45,0,0,1-1.44-1.32C208.62,357.6,209.31,357.42,209.42,356.85Z"/><path class="cls-5" d="M181.74,313.47a2.78,2.78,0,0,1-1.08-1.07.86.86,0,0,1,.47-.9c.61-.27,1.13.77,1.75.07a2.1,2.1,0,0,1,.5,1.09c-.11.37-.42.57-.77.81Z"/><path class="cls-5" d="M243.92,337.64l-.06.87c-.39.24-.68.63-1.3.65l-.69-.5c-.26-.31-.17-.78-.61-1.11l1.57-.88A1.5,1.5,0,0,1,243.92,337.64Z"/><path class="cls-5" d="M191.76,344.71a3.44,3.44,0,0,1-1.1-1.92.87.87,0,0,1,.77-.73,1.25,1.25,0,0,1,1.41.5C193,343.48,192.34,344,191.76,344.71Z"/><path class="cls-5" d="M194.59,331.38c1,.73.08,1.54.31,2.28l-.93.43c-.11,0-.24-.07-.29-.14-.28-.37-.54-.76-.76-1.07-.13-.58.41-.77.38-1.11C193.74,331.42,194.24,331.7,194.59,331.38Z"/><path class="cls-5" d="M174.06,306.24a3.94,3.94,0,0,0-1.48-.27,4.5,4.5,0,0,1-.14-1.51c.22-.3.48-.23.73-.21a6.29,6.29,0,0,1,1.62.39A1.33,1.33,0,0,1,174.06,306.24Z"/><path class="cls-5" d="M163.16,307.93a3.65,3.65,0,0,1-2-.69c-.21-.43.05-.67.15-.95a7.8,7.8,0,0,0,.23-.81c.69.29,1.43.25,2,.86C163.59,306.83,163.22,307.25,163.16,307.93Z"/><path class="cls-5" d="M162.2,322.72l-.75.65c-.21,0-.41,0-.51-.11-.38-.35-.72-.73-1.06-1.07.16-.64.78-.77,1-1.27.52.19,1,.25,1.25.58S162.33,322.15,162.2,322.72Z"/><path class="cls-5" d="M207.86,351.91a1.19,1.19,0,0,1-1,.39c-.27,0-.44-.59-.87-.72a2,2,0,0,1-.23-1.06c.11-.43.71-.39.81-.89.35.49,1,.51,1.33,1A3,3,0,0,1,207.86,351.91Z"/><path class="cls-5" d="M176,347.44c.16.14.28.2.31.28.17.48.31,1,.44,1.36-.15.45-.52.49-.72.71-1.06-.09-1.06-.09-1.72-1,0-.56.73-.57.73-1.06C175.38,347.52,175.77,347.74,176,347.44Z"/><path class="cls-5" d="M152.23,362.89c.16.14.28.2.31.28.17.48.31,1,.44,1.36-.15.45-.52.49-.72.71-1.06-.09-1.06-.09-1.72-1,0-.56.73-.57.73-1.06C151.62,363,152,363.19,152.23,362.89Z"/><path class="cls-5" d="M153.11,328a1.53,1.53,0,0,1-.41-.27c-.28-.38-.52-.78-.75-1.12,0-.56.61-.61.68-1,.15,0,.21,0,.24,0l.74.55a1.05,1.05,0,0,0,.71-.14,3.93,3.93,0,0,1,.05,1.44c-.05.05-.08.11-.12.13Z"/><path class="cls-5" d="M196,308.68l.52-.94H198c.37.13.67.46.66,1.23a1.33,1.33,0,0,1-.84.69l-1-.25Z"/><path class="cls-5" d="M216.33,332.66a3.71,3.71,0,0,1-1.64-1.12c-.13-.43.27-.5.46-.71s.36-.49.53-.71c.45.18.63.63,1,.69l.31,1.12A1.39,1.39,0,0,1,216.33,332.66Z"/><path class="cls-5" d="M225.21,338.72l.38.71a1.14,1.14,0,0,1-.39,1.06,2.66,2.66,0,0,1-1.19.18c-.31-.18-.32-.54-.51-.78.09-.4.19-.8.29-1.23l.69-.31Z"/><path class="cls-5" d="M192.71,314.34a4,4,0,0,1,.07,1.61,4.79,4.79,0,0,1-1.58.09c-.59-.43-.51-1-.47-1.54A3,3,0,0,1,192.71,314.34Z"/><path class="cls-5" d="M200.31,321.44l.06,1a1,1,0,0,1-.52.61c-.13,0-.31,0-.42-.05-.62-.39-.62-.4-1.22-1.35.14-.46.54-.7.89-1Z"/><path class="cls-5" d="M210,336.27l-.57,1.24a.92.92,0,0,1-.84.33,3.57,3.57,0,0,1-1.11-1.56,1.6,1.6,0,0,1,1.3-.5A2.6,2.6,0,0,1,210,336.27Z"/><path class="cls-5" d="M203.88,313.46l-.07,1.19a.81.81,0,0,1-.94.43,2.94,2.94,0,0,1-1.17-1.47l.83-.94C203.05,312.8,203.27,313.37,203.88,313.46Z"/><path class="cls-5" d="M207.43,363.8l1.33-.3c.63.23.32.92.64,1.29a2,2,0,0,1-.85.77l-.82-.05c-.53-.27-.15-.95-.75-1.11Z"/><path class="cls-5" d="M238.54,345c-.32.64-.64,1-1.31,1l-.83-1.1.56-1.17c.27-.21.52-.12.84-.09Z"/><path class="cls-5" d="M185,337.83a2.75,2.75,0,0,1-1.22-1.69l.57-.42h1.23a1.33,1.33,0,0,1,.55.94A5,5,0,0,1,185,337.83Z"/><path class="cls-5" d="M171,361.72a6.26,6.26,0,0,1,.52.63,4.66,4.66,0,0,1,.28.62l-.29,1.13a2.22,2.22,0,0,1-1.4,0,9,9,0,0,1-.08-1.59C170.19,362,170.64,362.1,171,361.72Z"/><path class="cls-5" d="M227.88,347.89l-.87-.45-.42-1.32a1.93,1.93,0,0,1,.91-.61c.44.09.44.53.67.78a6.35,6.35,0,0,0,.79.67C228.72,347.4,228.26,347.55,227.88,347.89Z"/><path class="cls-5" d="M171.25,342a2.43,2.43,0,0,1,0-1.36c.12-.06.26-.19.4-.19.52,0,1,.1,1.47-.28.42.2.49.54.45,1l-.67.84Z"/><path class="cls-5" d="M140.44,326.06l1.2-.37a1,1,0,0,1,.77.4,2.22,2.22,0,0,1,0,1.2c-.1,0-.19.14-.28.14-.56,0-1.13-.05-1.68-.09A1.54,1.54,0,0,1,140.44,326.06Z"/><path class="cls-5" d="M221.47,344.68c.07.71-.44,1-.88,1.32a1,1,0,0,1-.77-.13c-.06-.09-.15-.17-.16-.26,0-.36,0-.72-.09-1.08a1.64,1.64,0,0,0-.15-.44l.69-.42C220.5,344.08,221.13,344.18,221.47,344.68Z"/><path class="cls-5" d="M191,366.23c-.66-.57-.79-1.32-1.17-1.86a1,1,0,0,1,.8-.64,2.09,2.09,0,0,1,1.26.87C191.56,365.08,191.66,365.78,191,366.23Z"/><path class="cls-5" d="M249.15,358.49a2,2,0,0,1,.64-1.05c1.6.12,1.67.16,1.88,1.23l-.71.53a.94.94,0,0,1-.31.07C250.1,359.12,249.88,358.47,249.15,358.49Z"/><path class="cls-5" d="M214.2,350l1.34.43a1.07,1.07,0,0,1-.2,1.63,2.2,2.2,0,0,1-1.68-1C213.68,350.59,214,350.3,214.2,350Z"/><path class="cls-5" d="M182.33,318.59a.73.73,0,0,1-.41.87l-.9.12-.49-1-.22.18v-1.1c.13-.17.3-.26.66-.16.14.12.36.34.6.54S182.08,318.41,182.33,318.59Z"/><path class="cls-5" d="M215.54,336.75a3.32,3.32,0,0,1,.79-.11c.4.06.84-.11,1.25.18a1.78,1.78,0,0,1,.07,1.24l-.66.58-.6-.27C216.16,337.92,215.9,337.43,215.54,336.75Z"/><path class="cls-5" d="M223,354.92c.53.3,1.06.49,1,1.26-.28.31-.5.8-1.15.92a7.28,7.28,0,0,1-1.07-1.41C222,355.08,222.53,355.15,223,354.92Z"/><path class="cls-5" d="M141.24,355.53l-1.5-.91c.21-.93,1-.86,1.66-1.14a1.79,1.79,0,0,1,.76.93C142.07,354.92,141.67,355.17,141.24,355.53Z"/><path class="cls-5" d="M177.29,327.42l-.42-.92.36-.42a2,2,0,0,1,1.59.26c.4.75-.18,1.15-.29,1.67A2.39,2.39,0,0,1,177.29,327.42Z"/><path class="cls-5" d="M232.41,339.61a2.86,2.86,0,0,1-.94-1.94l.43-.39,1.81,1.39C233.6,339.49,232.86,339.34,232.41,339.61Z"/><path class="cls-5" d="M148.53,360.58l.77.52a3.13,3.13,0,0,1-.62,1.25c-.24.17-.5,0-.76,0a3.06,3.06,0,0,1-1-.77l.08-.6C147.52,360.78,148.09,361,148.53,360.58Z"/><path class="cls-5" d="M199.14,366.12h-2.06a1.11,1.11,0,0,1-.36-.48l.72-.9c.31-.17.71,0,.94-.32A2.15,2.15,0,0,1,199.14,366.12Z"/><path class="cls-5" d="M163.65,314.43a1.94,1.94,0,0,1-1.09-.28l-.46-1.21c.56-.5,1.13-.05,1.63-.24l.43.53A1,1,0,0,1,163.65,314.43Z"/><path class="cls-5" d="M221.29,317.79v-1.12a.42.42,0,0,1,.55-.16c.46.19.92.41,1.37.6a.73.73,0,0,1,.14.61C222.66,318.53,222.66,318.53,221.29,317.79Z"/><path class="cls-5" d="M191.05,324.37l-.13-.46c.4-.48.4-.47,1.1-.72.64.32.79,1,1.34,1.45l-.44.48c-.25,0,0,.08-.21,0C192.15,324.88,191.6,324.62,191.05,324.37Z"/><path class="cls-5" d="M151.57,308.65l-.72-.9.3-.56c.1-.05.2-.13.29-.12a4.15,4.15,0,0,1,2,.7C152.91,308.41,152,307.93,151.57,308.65Z"/><path class="cls-5" d="M143,342.69c0,.67-.58.29-.8.55a4.11,4.11,0,0,1-.62.54,1.09,1.09,0,0,1-1.17-.41c-.09-.32.16-.45.39-.66A6,6,0,0,1,143,342.69Z"/><path class="cls-5" d="M184.14,331.24l-.61-.42a2.28,2.28,0,0,1,.4-.46c.3-.2.62-.37,1-.58l1.18.57a.35.35,0,0,1-.37.41A4.2,4.2,0,0,0,184.14,331.24Z"/><path class="cls-5" d="M172.28,312.73H173c.45.23.74.68,1.26.8-.25.52-.6.25-.86.33s-.58.12-.93.19l-.61-.57C171.79,313.1,172,313,172.28,312.73Z"/><path class="cls-5" d="M210.18,343.15l.19-.45a.66.66,0,0,1,.75.17c.45.41,1,.72,1.16,1.37a.86.86,0,0,1-.85.15A4.71,4.71,0,0,1,210.18,343.15Z"/><path class="cls-5" d="M166.49,329.92c-.48-.1-.91.08-1.33-.25.06-.76.89-1.06,1.09-1.71l.69,1.07C166.82,329.28,166.68,329.55,166.49,329.92Z"/><path class="cls-5" d="M203,327.72a6.18,6.18,0,0,1,1.22-1.13c.1.08.16.11.16.14,0,.46.05.92.07,1.3-.34.64-.93.37-1.37.52C202.94,328.35,203,328.11,203,327.72Z"/><path class="cls-5" d="M148.46,334l.44-.34a1.9,1.9,0,0,0,1,.27,8.39,8.39,0,0,0,.2,1c.07.22.31.41.15.69C148.74,334.77,148.74,334.77,148.46,334Z"/><path class="cls-5" d="M168.71,353.06a.76.76,0,0,1,.55-.59,1.39,1.39,0,0,1,.87,1,1.77,1.77,0,0,1-1,1Z"/><path class="cls-5" d="M138.66,332.84c.52.31-.06.6.14.85s.32.53,0,.83a.9.9,0,0,1-.28.11l-1.34-.05c0-.12-.06-.19,0-.22A19.32,19.32,0,0,1,138.66,332.84Z"/><path class="cls-5" d="M186.36,350.85v-.41c.29-.42.84-.16,1.06-.57a6,6,0,0,0,.78.31c.24.07.53,0,.74.2a.23.23,0,0,1-.21.31,3.55,3.55,0,0,0-1.19.31A1,1,0,0,1,186.36,350.85Z"/><path class="cls-5" d="M159.12,352.46l-.12,1.33-.34.36a2,2,0,0,1-1.2-.07c0-.1-.06-.22,0-.28A3.42,3.42,0,0,1,159.12,352.46Z"/><path class="cls-5" d="M191,357.8l0-.49,1.15-.75h1.12c0,.08,0,.18-.09.22l-1.6,1.16A.51.51,0,0,1,191,357.8Z"/><path class="cls-5" d="M150.61,345.5c-.07.19-.16.42-.23.67s-.1.48-.14.66c-.35.27-.74,0-1,.45l-.14-.77a2.55,2.55,0,0,1,1.34-1.19s.1,0,.11,0A1.44,1.44,0,0,1,150.61,345.5Z"/><path class="cls-5" d="M158.25,335.31l.49,1.34c-.2.7-1,.29-1.28.76a.42.42,0,0,1-.09-.56C157.62,336.38,157.9,335.91,158.25,335.31Z"/><path class="cls-5" d="M176.71,334.54c-.57.26-.59-.37-1-.44l-1,.44v-1.16c.12-.22.28-.2.56-.21C175.69,333.58,176.18,334.05,176.71,334.54Z"/><path class="cls-5" d="M166.31,346.12l-.36.68a.57.57,0,0,1-.69,0c.11-.68.22-1.4.34-2.16Z"/><path class="cls-5" d="M156.7,344.5c.74-.77,1.38-.63,1.7-.94a.78.78,0,0,1,.64.57c0,.28-.21.45-.49.66A2.64,2.64,0,0,0,156.7,344.5Z"/><path class="cls-5" d="M162.09,361.18c.33.4.65.65.37,1.08-.47.16-.6-.3-.89-.47s-.75,0-.94-.43c0,0,0-.1,0-.1Z"/><path class="cls-5" d="M218.88,323.47c.23.31.05.63.13.87a2.23,2.23,0,0,1-.76.84c-.39.09-.71-.26-1.29.05A3.66,3.66,0,0,1,218.88,323.47Z"/><path class="cls-5" d="M211.79,313.53c.35-.2.57.18.88.11a2.78,2.78,0,0,1,.76,0c.45.48.24.94,0,1.4.07.21.38.4.08.67-.66-.22-.44-.82-.53-1.22s-.5-.21-.71-.31A.69.69,0,0,1,211.79,313.53Z"/><path class="cls-5" d="M209.86,322.63l-.39,1.23c-.18.07-.26-.07-.36-.16-.31-.29-.11-.69-.24-1.05s-.84-.34-.88-.88C208.2,321.54,208.86,321.85,209.86,322.63Z"/></g></g></svg>