<?xml version="1.0" standalone="no"?>
<!DOCTYPE svg PUBLIC "-//W3C//DTD SVG 20010904//EN"
 "http://www.w3.org/TR/2001/REC-SVG-20010904/DTD/svg10.dtd">
<svg version="1.0" xmlns="http://www.w3.org/2000/svg"
 width="1080.000000pt" height="1080.000000pt" viewBox="0 0 1080.000000 1080.000000"
 preserveAspectRatio="xMidYMid meet">
<metadata>
Created by potrace 1.11, written by Peter Selinger 2001-2013
</metadata>
<g transform="translate(0.000000,1080.000000) scale(0.100000,-0.100000)"
fill="#000000" stroke="none">
<path d="M3160 7238 c-20 -7 -20 -24 -20 -975 0 -969 3 -1078 37 -1218 59
-250 222 -453 458 -573 125 -63 355 -112 523 -112 189 0 410 48 553 120 245
124 415 346 470 615 18 84 19 155 19 1116 0 813 -3 1028 -12 1031 -11 4 -258
3 -335 -1 l-23 -1 0 -957 c0 -953 -4 -1091 -35 -1198 -48 -164 -154 -290 -299
-355 -105 -48 -202 -64 -345 -57 -324 15 -514 145 -604 411 -21 60 -21 80 -24
1104 -3 803 -7 1044 -16 1047 -21 8 -327 10 -347 3z"/>
<path d="M5857 7242 l-67 -3 2 -1417 3 -1417 187 -3 188 -2 2 572 3 573 325 2
c179 2 330 0 336 -5 6 -4 71 -119 144 -257 74 -137 152 -284 174 -326 23 -41
99 -184 171 -317 l130 -242 197 0 c113 0 199 4 203 9 3 6 -75 155 -173 333
-99 178 -247 446 -331 596 -83 151 -151 278 -151 283 0 5 24 21 53 35 153 78
282 188 359 309 86 134 118 255 118 438 -1 251 -72 439 -222 588 -100 99 -247
177 -413 216 -107 25 -120 26 -510 30 -220 2 -458 4 -530 6 -71 1 -160 1 -198
-1z m1078 -325 c277 -61 417 -242 416 -537 0 -204 -102 -366 -284 -454 -123
-59 -183 -66 -562 -66 l-335 0 0 534 c0 418 3 535 13 539 6 3 163 4 347 2 257
-2 351 -6 405 -18z"/>
</g>
</svg>
